<svg width="31" height="31" viewBox="0 0 31 31" fill="none" xmlns="http://www.w3.org/2000/svg">
<g clip-path="url(#clip0_5178_2150)">
<path d="M30.0544 6.67125C29.0106 7.13375 27.8894 7.44625 26.7106 7.5875C27.9269 6.85974 28.8368 5.71433 29.2706 4.365C28.1279 5.04373 26.8773 5.52149 25.5731 5.7775C24.6961 4.84108 23.5345 4.2204 22.2685 4.01184C21.0026 3.80327 19.7032 4.01849 18.5722 4.62406C17.4411 5.22964 16.5416 6.1917 16.0133 7.36088C15.485 8.53005 15.3575 9.84093 15.6506 11.09C13.3352 10.9737 11.0702 10.3719 9.00241 9.32363C6.93465 8.27532 5.11043 6.80395 3.64812 5.005C3.14812 5.8675 2.86063 6.8675 2.86063 7.9325C2.86007 8.89124 3.09617 9.8353 3.54797 10.6809C3.99978 11.5265 4.65333 12.2475 5.45062 12.78C4.52597 12.7506 3.62172 12.5007 2.81313 12.0512V12.1262C2.81303 13.4709 3.27817 14.7742 4.1296 15.815C4.98104 16.8558 6.16634 17.5699 7.48438 17.8362C6.6266 18.0684 5.7273 18.1026 4.85437 17.9362C5.22625 19.0933 5.95062 20.105 6.92608 20.8299C7.90155 21.5548 9.07927 21.9565 10.2944 21.9787C8.23167 23.598 5.68423 24.4764 3.06187 24.4725C2.59735 24.4726 2.13322 24.4455 1.67188 24.3912C4.33372 26.1027 7.4323 27.011 10.5969 27.0075C21.3094 27.0075 27.1656 18.135 27.1656 10.44C27.1656 10.19 27.1594 9.9375 27.1481 9.6875C28.2872 8.86371 29.2705 7.84362 30.0519 6.675L30.0544 6.67125Z" fill="white"/>
</g>
<defs>
<clipPath id="clip0_5178_2150">
<rect width="30" height="30" fill="white" transform="translate(0.5 0.5)"/>
</clipPath>
</defs>
</svg>
