<svg width="31" height="31" viewBox="0 0 31 31" fill="none" xmlns="http://www.w3.org/2000/svg">
<path fill-rule="evenodd" clip-rule="evenodd" d="M9.83125 1.8325C11.2975 1.765 11.765 1.75 15.5 1.75C19.235 1.75 19.7025 1.76625 21.1675 1.8325C22.6325 1.89875 23.6325 2.1325 24.5075 2.47125C25.4237 2.8175 26.255 3.35875 26.9425 4.05875C27.6425 4.745 28.1825 5.575 28.5275 6.4925C28.8675 7.3675 29.1 8.3675 29.1675 9.83C29.235 11.2987 29.25 11.7662 29.25 15.5C29.25 19.235 29.2337 19.7025 29.1675 21.1688C29.1012 22.6313 28.8675 23.6313 28.5275 24.5063C28.1825 25.4239 27.6416 26.2552 26.9425 26.9425C26.255 27.6425 25.4237 28.1825 24.5075 28.5275C23.6325 28.8675 22.6325 29.1 21.17 29.1675C19.7025 29.235 19.235 29.25 15.5 29.25C11.765 29.25 11.2975 29.2337 9.83125 29.1675C8.36875 29.1012 7.36875 28.8675 6.49375 28.5275C5.57615 28.1825 4.74478 27.6416 4.0575 26.9425C3.35797 26.2558 2.81664 25.4249 2.47125 24.5075C2.1325 23.6325 1.9 22.6325 1.8325 21.17C1.765 19.7013 1.75 19.2337 1.75 15.5C1.75 11.765 1.76625 11.2975 1.8325 9.8325C1.89875 8.3675 2.1325 7.3675 2.47125 6.4925C2.81715 5.5751 3.3589 4.74414 4.05875 4.0575C4.74505 3.35813 5.57559 2.8168 6.4925 2.47125C7.3675 2.1325 8.3675 1.9 9.83 1.8325H9.83125ZM21.0562 4.3075C19.6062 4.24125 19.1712 4.2275 15.5 4.2275C11.8287 4.2275 11.3938 4.24125 9.94375 4.3075C8.6025 4.36875 7.875 4.5925 7.39 4.78125C6.74875 5.03125 6.29 5.3275 5.80875 5.80875C5.35256 6.25256 5.00148 6.79285 4.78125 7.39C4.5925 7.875 4.36875 8.6025 4.3075 9.94375C4.24125 11.3938 4.2275 11.8287 4.2275 15.5C4.2275 19.1712 4.24125 19.6062 4.3075 21.0562C4.36875 22.3975 4.5925 23.125 4.78125 23.61C5.00125 24.2063 5.3525 24.7475 5.80875 25.1912C6.2525 25.6475 6.79375 25.9988 7.39 26.2188C7.875 26.4075 8.6025 26.6313 9.94375 26.6925C11.3938 26.7588 11.8275 26.7725 15.5 26.7725C19.1725 26.7725 19.6062 26.7588 21.0562 26.6925C22.3975 26.6313 23.125 26.4075 23.61 26.2188C24.2513 25.9688 24.71 25.6725 25.1912 25.1912C25.6475 24.7475 25.9988 24.2063 26.2188 23.61C26.4075 23.125 26.6313 22.3975 26.6925 21.0562C26.7588 19.6062 26.7725 19.1712 26.7725 15.5C26.7725 11.8287 26.7588 11.3938 26.6925 9.94375C26.6313 8.6025 26.4075 7.875 26.2188 7.39C25.9688 6.74875 25.6725 6.29 25.1912 5.80875C24.7474 5.35259 24.2071 5.00151 23.61 4.78125C23.125 4.5925 22.3975 4.36875 21.0562 4.3075ZM13.7438 19.7388C14.7246 20.147 15.8167 20.2021 16.8337 19.8947C17.8506 19.5872 18.7292 18.9361 19.3195 18.0528C19.9098 17.1695 20.1751 16.1086 20.0701 15.0514C19.965 13.9942 19.4963 13.0062 18.7437 12.2562C18.264 11.7768 17.684 11.4098 17.0454 11.1814C16.4068 10.9531 15.7255 10.8692 15.0506 10.9358C14.3757 11.0023 13.7239 11.2177 13.1423 11.5664C12.5606 11.9151 12.0634 12.3884 11.6866 12.9523C11.3098 13.5162 11.0627 14.1566 10.9631 14.8275C10.8636 15.4983 10.9139 16.1829 11.1107 16.8319C11.3074 17.4809 11.6456 18.0783 12.1009 18.5809C12.5562 19.0835 13.1173 19.479 13.7438 19.7388ZM10.5025 10.5025C11.1588 9.84622 11.9379 9.32563 12.7954 8.97045C13.6528 8.61527 14.5719 8.43247 15.5 8.43247C16.4281 8.43247 17.3472 8.61527 18.2046 8.97045C19.0621 9.32563 19.8412 9.84622 20.4975 10.5025C21.1538 11.1588 21.6744 11.9379 22.0295 12.7954C22.3847 13.6528 22.5675 14.5719 22.5675 15.5C22.5675 16.4281 22.3847 17.3472 22.0295 18.2046C21.6744 19.0621 21.1538 19.8412 20.4975 20.4975C19.1721 21.8229 17.3744 22.5675 15.5 22.5675C13.6256 22.5675 11.8279 21.8229 10.5025 20.4975C9.17708 19.1721 8.43247 17.3744 8.43247 15.5C8.43247 13.6256 9.17708 11.8279 10.5025 10.5025ZM24.135 9.485C24.2976 9.33159 24.4278 9.1471 24.5179 8.94247C24.6079 8.73783 24.656 8.51721 24.6593 8.29366C24.6625 8.07011 24.6209 7.84818 24.5369 7.64101C24.4528 7.43384 24.328 7.24564 24.17 7.08755C24.0119 6.92946 23.8237 6.8047 23.6165 6.72065C23.4093 6.6366 23.1874 6.59497 22.9638 6.59823C22.7403 6.60149 22.5197 6.64957 22.315 6.73962C22.1104 6.82967 21.9259 6.95987 21.7725 7.1225C21.4741 7.43879 21.3108 7.8589 21.3171 8.29366C21.3235 8.72842 21.499 9.1436 21.8064 9.45105C22.1139 9.75851 22.5291 9.93404 22.9638 9.94037C23.3986 9.94671 23.8187 9.78336 24.135 9.485Z" fill="white"/>
</svg>
