<svg width="11" height="153" viewBox="0 0 11 153" fill="none" xmlns="http://www.w3.org/2000/svg">
<path d="M6.71826 150.419H10V152.291H1.05615L1.05615 145.696H2.50342L2.50342 150.419H5.271V145.842H6.71826V150.419ZM5.48682 127.653C6.41781 127.653 7.23242 127.841 7.93066 128.218C8.62467 128.59 9.16423 129.117 9.54932 129.798C9.93441 130.476 10.127 131.271 10.127 132.185C10.127 133.12 9.94076 133.924 9.56836 134.597C9.19173 135.27 8.65641 135.786 7.9624 136.146C7.26839 136.506 6.4432 136.686 5.48682 136.686C4.53044 136.686 3.71159 136.508 3.03027 136.152C2.34896 135.793 1.82845 135.276 1.46875 134.604C1.10482 133.927 0.922852 133.116 0.922852 132.172C0.922852 131.225 1.10693 130.414 1.4751 129.741C1.83903 129.068 2.36165 128.552 3.04297 128.192C3.72428 127.833 4.5389 127.653 5.48682 127.653ZM5.48682 129.564C4.52197 129.564 3.7666 129.792 3.2207 130.249C2.67057 130.706 2.39551 131.347 2.39551 132.172C2.39551 133.01 2.66846 133.658 3.21436 134.115C3.75602 134.572 4.51351 134.8 5.48682 134.8C6.13851 134.8 6.70133 134.695 7.17529 134.483C7.64925 134.271 8.0153 133.971 8.27344 133.582C8.52734 133.188 8.6543 132.723 8.6543 132.185C8.6543 131.347 8.37923 130.702 7.8291 130.249C7.27897 129.792 6.49821 129.564 5.48682 129.564ZM8.55273 111.565H10V118.236H1.05615V116.363H8.55273V111.565ZM8.55273 95.6224H10V102.294H1.05615V100.421H8.55273V95.6224ZM5.48682 77.6552C6.41781 77.6552 7.23242 77.8435 7.93066 78.2202C8.62467 78.5926 9.16423 79.1194 9.54932 79.8007C9.93441 80.4778 10.127 81.2734 10.127 82.1874C10.127 83.1227 9.94076 83.9267 9.56836 84.5996C9.19173 85.2724 8.65641 85.7887 7.9624 86.1484C7.26839 86.5081 6.4432 86.6879 5.48682 86.6879C4.53044 86.6879 3.71159 86.5102 3.03027 86.1547C2.34896 85.795 1.82845 85.2788 1.46875 84.6059C1.10482 83.9288 0.922852 83.1184 0.922852 82.1748C0.922852 81.2268 1.10693 80.4165 1.4751 79.7436C1.83903 79.0707 2.36165 78.5545 3.04297 78.1948C3.72428 77.8351 4.5389 77.6552 5.48682 77.6552ZM5.48682 79.5659C4.52197 79.5659 3.7666 79.7944 3.2207 80.2514C2.67057 80.7084 2.39551 81.3496 2.39551 82.1748C2.39551 83.0126 2.66846 83.6601 3.21436 84.1171C3.75602 84.5742 4.51351 84.8027 5.48682 84.8027C6.13851 84.8027 6.70133 84.6969 7.17529 84.4853C7.64925 84.2737 8.0153 83.9733 8.27344 83.5839C8.52734 83.1904 8.6543 82.7249 8.6543 82.1874C8.6543 81.3496 8.37923 80.7042 7.8291 80.2514C7.27897 79.7944 6.49821 79.5659 5.48682 79.5659ZM4.70605 63.338L10 64.5694V66.7911L1.05615 69.0953V67.1973L6.53418 65.9532C6.76693 65.8982 7.03564 65.8389 7.34033 65.7755C7.64502 65.7077 7.94124 65.6527 8.229 65.6104C8.03011 65.5681 7.83757 65.53 7.65137 65.4962C7.46094 65.4581 7.27474 65.42 7.09277 65.3819C6.90658 65.3438 6.72249 65.3036 6.54053 65.2613L1.05615 63.9981V61.9034L6.34375 60.6529C6.52148 60.6106 6.77962 60.5598 7.11816 60.5005C7.45671 60.4371 7.82699 60.3778 8.229 60.3228C7.98356 60.2678 7.76774 60.2191 7.58154 60.1768C7.39111 60.1303 7.2028 60.0858 7.0166 60.0435C6.82617 59.997 6.61035 59.9483 6.36914 59.8975L1.05615 58.7486V56.8506L10 59.1612V61.3829L4.82666 62.5953C4.52197 62.6672 4.21094 62.7349 3.89355 62.7984C3.57617 62.8619 3.25033 62.919 2.91602 62.9698C3.09798 63.0036 3.31169 63.046 3.55713 63.0967C3.80257 63.1475 4.03109 63.1962 4.24268 63.2427C4.45426 63.2851 4.60872 63.3168 4.70605 63.338ZM10.127 32.6341C10.127 33.4551 9.99365 34.1491 9.72705 34.7161C9.45622 35.2832 9.06266 35.7127 8.54639 36.0047C8.02588 36.2967 7.39323 36.4427 6.64844 36.4427H1.05615V34.5701H6.50244C7.20915 34.5701 7.74658 34.403 8.11475 34.0687C8.47868 33.7301 8.66064 33.235 8.66064 32.5833C8.66064 31.9147 8.47021 31.4005 8.08936 31.0408C7.70426 30.6811 7.15413 30.5013 6.43896 30.5013H1.05615V28.6287H6.55322C7.30648 28.6287 7.94971 28.7874 8.48291 29.1048C9.01611 29.4179 9.42448 29.8729 9.70801 30.4695C9.9873 31.0662 10.127 31.7877 10.127 32.6341ZM7.42285 11.6708C8.29883 11.6708 8.96956 11.9967 9.43506 12.6484C9.89632 13.2958 10.127 14.248 10.127 15.5048C10.127 17.7688 9.30811 19.087 7.67041 19.4594L7.37207 17.6503C7.84603 17.5276 8.19092 17.2885 8.40674 16.933C8.61833 16.5776 8.72412 16.0846 8.72412 15.454C8.72412 14.7981 8.62467 14.3072 8.42578 13.9814C8.22689 13.6555 7.92855 13.4926 7.53076 13.4926C7.27686 13.4926 7.06738 13.5667 6.90234 13.7148C6.7373 13.8629 6.59977 14.0745 6.48975 14.3495C6.43473 14.485 6.37549 14.6839 6.31201 14.9462C6.2443 15.2086 6.17025 15.5344 6.08984 15.9238C5.98405 16.3723 5.89518 16.7236 5.82324 16.9775C5.74707 17.2314 5.67513 17.4345 5.60742 17.5869C5.53548 17.7392 5.45719 17.8873 5.37256 18.0312C5.18213 18.3486 4.92822 18.5961 4.61084 18.7739C4.29346 18.9516 3.89779 19.0405 3.42383 19.0405C2.61556 19.0405 1.99772 18.7379 1.57031 18.1328C1.13867 17.5234 0.922852 16.6389 0.922852 15.4794C0.922852 14.3707 1.09635 13.5392 1.44336 12.9848C1.79036 12.4262 2.36377 12.0665 3.16357 11.9057L3.41113 13.7211C3.02604 13.8142 2.73617 14.0047 2.5415 14.2924C2.34684 14.5759 2.24951 14.9843 2.24951 15.5175C2.24951 16.0846 2.33838 16.5099 2.51611 16.7934C2.69385 17.0769 2.96045 17.2187 3.31592 17.2187C3.54867 17.2187 3.7391 17.1594 3.88721 17.041C4.03532 16.9182 4.16227 16.7384 4.26807 16.5014C4.36963 16.2771 4.4987 15.7968 4.65527 15.0605C4.74837 14.6331 4.83724 14.2649 4.92188 13.956C5.00228 13.6471 5.08057 13.3995 5.15674 13.2133C5.23714 13.0271 5.32178 12.8621 5.41064 12.7182C5.49951 12.5701 5.59473 12.4431 5.69629 12.3373C5.90365 12.1215 6.1512 11.9565 6.43896 11.8422C6.72249 11.728 7.05046 11.6708 7.42285 11.6708ZM3.43652 0.089386H5.22656V1.91751H3.43652V0.089386ZM8.21631 0.089386H10V1.91751H8.21631V0.089386Z" fill="white"/>
</svg>
