<svg width="811" height="56" viewBox="0 0 811 56" fill="none" xmlns="http://www.w3.org/2000/svg">
<rect width="811" height="56" fill="#F34B4B"/>
<path d="M178.507 26.0732V39H174.541V17.6724H180.52L184.334 29.6001C184.506 30.2661 184.682 30.9372 184.864 31.6133C185.046 32.2793 185.222 32.9453 185.394 33.6113C185.505 33.2279 185.611 32.8494 185.712 32.4761C185.813 32.0926 185.914 31.7091 186.014 31.3257C186.125 30.9422 186.236 30.5638 186.347 30.1904L190.268 17.6724H196.217V39H192.251V26.0732C192.251 25.7806 192.261 25.1953 192.281 24.3174C192.311 23.4294 192.352 22.4657 192.402 21.4263C192.049 22.7785 191.736 23.9289 191.464 24.8774C191.201 25.826 190.984 26.5677 190.813 27.1025L186.968 39H183.789L179.945 27.1025L178.325 21.4263C178.386 22.5968 178.431 23.5706 178.461 24.3477C178.491 25.1146 178.507 25.6898 178.507 26.0732ZM236.885 33.5508L234.993 39H230.527L238.308 17.6724H243.575L251.325 39H246.905L245.013 33.5508H236.885ZM240.941 20.957C240.84 21.3607 240.699 21.8451 240.518 22.4102C240.336 22.9753 240.205 23.3739 240.124 23.606L237.884 30.1904H244.014L241.713 23.4697C241.572 23.056 241.441 22.6372 241.32 22.2134C241.199 21.7896 241.073 21.3708 240.941 20.957ZM303.088 32.8545C303.088 34.9434 302.311 36.5428 300.757 37.6528C299.213 38.7528 296.943 39.3027 293.946 39.3027C288.547 39.3027 285.404 37.3501 284.516 33.4448L288.83 32.7334C289.122 33.8636 289.692 34.686 290.54 35.2007C291.388 35.7052 292.563 35.9575 294.067 35.9575C295.631 35.9575 296.802 35.7204 297.579 35.2461C298.356 34.7718 298.744 34.0604 298.744 33.1118C298.744 32.5063 298.568 32.0068 298.214 31.6133C297.861 31.2197 297.357 30.8918 296.701 30.6294C296.378 30.4982 295.904 30.3569 295.278 30.2056C294.652 30.0441 293.875 29.8675 292.947 29.6758C291.877 29.4235 291.04 29.2116 290.434 29.04C289.829 28.8584 289.344 28.6868 288.981 28.5254C288.618 28.3538 288.265 28.1672 287.921 27.9653C287.165 27.5112 286.574 26.9058 286.15 26.1489C285.727 25.3921 285.515 24.4486 285.515 23.3184C285.515 21.391 286.236 19.9176 287.679 18.8984C289.132 17.8691 291.241 17.3545 294.006 17.3545C296.65 17.3545 298.633 17.7682 299.955 18.5957C301.287 19.4232 302.145 20.7905 302.528 22.6978L298.199 23.2881C297.977 22.3698 297.523 21.6785 296.837 21.2144C296.161 20.7502 295.187 20.5181 293.916 20.5181C292.563 20.5181 291.549 20.73 290.873 21.1538C290.197 21.5776 289.859 22.2134 289.859 23.061C289.859 23.616 290 24.0701 290.283 24.4233C290.575 24.7765 291.004 25.0793 291.569 25.3315C292.104 25.5737 293.25 25.8815 295.005 26.2549C296.025 26.4769 296.903 26.6888 297.639 26.8906C298.376 27.0824 298.966 27.269 299.41 27.4507C299.854 27.6424 300.248 27.8442 300.591 28.0562C300.944 28.2681 301.247 28.4951 301.499 28.7373C302.014 29.2318 302.407 29.8221 302.68 30.5083C302.952 31.1844 303.088 31.9665 303.088 32.8545ZM342.303 29.8574V39H337.838V17.6724H342.303V26.1641H351.597V17.6724H356.063V39H351.597V29.8574H342.303ZM396.761 33.5508L394.869 39H390.404L398.184 17.6724H403.452L411.202 39H406.782L404.89 33.5508H396.761ZM400.818 20.957C400.717 21.3607 400.576 21.8451 400.394 22.4102C400.212 22.9753 400.081 23.3739 400 23.606L397.76 30.1904H403.891L401.59 23.4697C401.448 23.056 401.317 22.6372 401.196 22.2134C401.075 21.7896 400.949 21.3708 400.818 20.957ZM461.482 35.5488V39H445.573V17.6724H450.038V35.5488H461.482ZM539.912 22.4707V26.4214H535.567V23.4697C535.567 22.2487 535.698 21.174 535.961 20.2456C536.223 19.3071 536.637 18.4494 537.202 17.6724H539.972C539.346 18.4595 538.857 19.2769 538.504 20.1245C538.161 20.9621 537.989 21.7441 537.989 22.4707H539.912ZM589.556 35.5034V39H574.631V36.0483C575.004 35.231 575.479 34.4338 576.054 33.6567C576.629 32.8696 577.315 32.0825 578.112 31.2954C578.92 30.4982 579.838 29.6808 580.867 28.8433C581.614 28.2378 582.25 27.6878 582.774 27.1934C583.299 26.6888 583.708 26.2397 584.001 25.8462C584.303 25.4526 584.53 25.0641 584.682 24.6807C584.833 24.2871 584.909 23.9036 584.909 23.5303C584.909 22.6019 584.672 21.9056 584.197 21.4414C583.733 20.9772 583.037 20.7451 582.108 20.7451C581.2 20.7451 580.504 20.9924 580.02 21.4868C579.545 21.9712 579.238 22.7028 579.096 23.6816L574.813 23.4395C575.055 21.4616 575.791 19.953 577.023 18.9136C578.264 17.8742 579.949 17.3545 582.078 17.3545C584.379 17.3545 586.145 17.8792 587.376 18.9287C588.607 19.9782 589.223 21.4515 589.223 23.3486C589.223 24.4183 589.001 25.377 588.557 26.2246C588.113 27.0723 587.548 27.8543 586.861 28.5708C586.296 29.1864 585.655 29.7716 584.939 30.3267C584.233 30.8817 583.546 31.4215 582.88 31.9463C582.174 32.5114 581.528 33.0815 580.943 33.6567C580.368 34.2319 579.939 34.8475 579.656 35.5034H589.556ZM638.398 33.0815C638.398 35.0796 637.742 36.6235 636.43 37.7134C635.118 38.8032 633.251 39.3481 630.829 39.3481C628.539 39.3481 626.717 38.8234 625.365 37.7739C624.013 36.7144 623.221 35.1906 622.988 33.2026L627.318 32.8242C627.59 34.8727 628.756 35.897 630.814 35.897C631.833 35.897 632.626 35.6447 633.191 35.1401C633.756 34.6356 634.038 33.8636 634.038 32.8242C634.038 31.8757 633.695 31.1491 633.009 30.6445C632.323 30.14 631.304 29.8877 629.951 29.8877H628.468V26.4517H629.861C631.082 26.4517 632 26.2044 632.615 25.71C633.231 25.2054 633.539 24.4889 633.539 23.5605C633.539 22.6826 633.292 21.9964 632.797 21.502C632.313 20.9974 631.601 20.7451 630.663 20.7451C629.785 20.7451 629.073 20.9873 628.529 21.4717C627.994 21.9561 627.686 22.6423 627.605 23.5303L623.352 23.2275C623.574 21.391 624.336 19.953 625.637 18.9136C626.939 17.8742 628.64 17.3545 630.738 17.3545C632.969 17.3545 634.709 17.859 635.961 18.8682C637.222 19.8672 637.853 21.2547 637.853 23.0308C637.853 24.3628 637.459 25.4577 636.672 26.3154C635.895 27.1732 634.77 27.7433 633.297 28.0259V28.0864C634.931 28.2782 636.188 28.818 637.066 29.7061C637.954 30.584 638.398 31.7091 638.398 33.0815Z" fill="white"/>
</svg>
