<svg width="31" height="31" viewBox="0 0 31 31" fill="none" xmlns="http://www.w3.org/2000/svg">
<path d="M15.5 26.75C21.7132 26.75 26.75 21.7132 26.75 15.5C26.75 9.2868 21.7132 4.25 15.5 4.25C9.2868 4.25 4.25 9.2868 4.25 15.5C4.25 21.7132 9.2868 26.75 15.5 26.75Z" stroke="white" stroke-width="2" stroke-linecap="round" stroke-linejoin="round"/>
<path d="M5 11.75H26M5 19.25H26M14.875 4.25C12.7692 7.62451 11.6528 11.5223 11.6528 15.5C11.6528 19.4777 12.7692 23.3755 14.875 26.75M16.125 4.25C18.2308 7.62451 19.3472 11.5223 19.3472 15.5C19.3472 19.4777 18.2308 23.3755 16.125 26.75" stroke="white" stroke-width="2" stroke-linecap="round" stroke-linejoin="round"/>
</svg>
