<svg width="80" height="77" viewBox="0 0 80 77" fill="none" xmlns="http://www.w3.org/2000/svg">
<ellipse cx="40.0002" cy="38.2851" rx="39.32" ry="38.2851" fill="#5F4484"/>
<path d="M54.4467 22.0835H25.1934C23.853 22.0835 22.7639 23.1588 22.7639 24.4787V52.9102C22.7639 54.2301 23.853 55.3054 25.1934 55.3054H54.4467C55.7871 55.3054 56.8838 54.2301 56.8838 52.9102V24.4787C56.8838 23.1588 55.7871 22.0835 54.4467 22.0835ZM33.076 50.5594H28.019V34.7049H33.0837V50.5594H33.076ZM30.5475 32.5395C28.9253 32.5395 27.6153 31.2566 27.6153 29.6845C27.6153 28.1124 28.9253 26.8295 30.5475 26.8295C32.1621 26.8295 33.4797 28.1124 33.4797 29.6845C33.4797 31.264 32.1697 32.5395 30.5475 32.5395ZM52.0324 50.5594H46.9753V42.8472C46.9753 41.0081 46.9373 38.6425 44.3478 38.6425C41.7126 38.6425 41.309 40.6448 41.309 42.7137V50.5594H36.2519V34.7049H41.1034V36.8702H41.1719C41.8497 35.6244 43.5024 34.3118 45.9624 34.3118C51.0804 34.3118 52.0324 37.5969 52.0324 41.8683V50.5594Z" fill="#FFFAFA"/>
</svg>
