<svg width="80" height="77" viewBox="0 0 80 77" fill="none" xmlns="http://www.w3.org/2000/svg">
<ellipse cx="40.1598" cy="38.2851" rx="39.32" ry="38.2851" fill="#5F4484"/>
<g clip-path="url(#clip0_4579_3695)">
<path d="M55.4009 24.7256C52.6372 23.4735 49.7197 22.5853 46.7228 22.0835C46.3127 22.809 45.9416 23.5554 45.6112 24.3196C42.4189 23.8436 39.1725 23.8436 35.9802 24.3196C35.6496 23.5555 35.2785 22.8091 34.8686 22.0835C31.8697 22.5895 28.9503 23.4799 26.1839 24.7321C20.6918 32.773 19.203 40.6141 19.9474 48.3439C23.1637 50.6954 26.7636 52.4838 30.5907 53.6313C31.4525 52.4844 32.215 51.2676 32.8703 49.994C31.6257 49.534 30.4245 48.9665 29.2806 48.2981C29.5817 48.082 29.8761 47.8593 30.1606 47.6433C33.4893 49.1923 37.1223 49.9955 40.8007 49.9955C44.479 49.9955 48.112 49.1923 51.4407 47.6433C51.7285 47.8757 52.0229 48.0983 52.3207 48.2981C51.1745 48.9676 49.9712 49.5362 48.7244 49.9972C49.3788 51.2703 50.1414 52.4861 51.0039 53.6313C54.8343 52.4884 58.437 50.7009 61.6539 48.3472C62.5273 39.3831 60.1618 31.614 55.4009 24.7256ZM33.8132 43.5901C31.7388 43.5901 30.025 41.7272 30.025 39.4355C30.025 37.1437 31.6792 35.2644 33.8066 35.2644C35.9339 35.2644 37.6345 37.1437 37.5981 39.4355C37.5617 41.7272 35.9273 43.5901 33.8132 43.5901ZM47.7881 43.5901C45.7104 43.5901 44.0032 41.7272 44.0032 39.4355C44.0032 37.1437 45.6575 35.2644 47.7881 35.2644C49.9188 35.2644 51.6061 37.1437 51.5697 39.4355C51.5333 41.7272 49.9022 43.5901 47.7881 43.5901Z" fill="white"/>
</g>
<defs>
<clipPath id="clip0_4579_3695">
<rect width="42.0638" height="31.5478" fill="white" transform="translate(19.7688 22.0835)"/>
</clipPath>
</defs>
</svg>
