<svg width="144" height="22" viewBox="0 0 144 22" fill="none" xmlns="http://www.w3.org/2000/svg">
<path d="M10.2 1.316C12.0853 1.316 13.756 1.736 15.212 2.576C16.668 3.416 17.7973 4.58267 18.6 6.076C19.4027 7.56933 19.804 9.268 19.804 11.172C19.804 13.076 19.4027 14.7747 18.6 16.268C17.7973 17.7613 16.668 18.928 15.212 19.768C13.756 20.608 12.0853 21.028 10.2 21.028C8.31467 21.028 6.644 20.608 5.188 19.768C3.732 18.928 2.59333 17.7613 1.772 16.268C0.969333 14.7747 0.568 13.076 0.568 11.172C0.568 9.268 0.969333 7.56933 1.772 6.076C2.59333 4.58267 3.732 3.416 5.188 2.576C6.644 1.736 8.31467 1.316 10.2 1.316ZM10.2 2.072C8.42667 2.072 6.868 2.464 5.524 3.248C4.18 4.01333 3.144 5.08667 2.416 6.468C1.70667 7.84933 1.352 9.41733 1.352 11.172C1.352 12.9267 1.70667 14.4947 2.416 15.876C3.144 17.2573 4.18 18.34 5.524 19.124C6.868 19.908 8.42667 20.3 10.2 20.3C11.9733 20.3 13.5227 19.908 14.848 19.124C16.192 18.34 17.2187 17.2573 17.928 15.876C18.656 14.4947 19.02 12.9267 19.02 11.172C19.02 9.41733 18.656 7.84933 17.928 6.468C17.2187 5.08667 16.192 4.01333 14.848 3.248C13.5227 2.464 11.9733 2.072 10.2 2.072ZM10.256 4.564C9.15467 4.564 8.13733 4.82533 7.204 5.348C6.28933 5.852 5.56133 6.608 5.02 7.616C4.47867 8.60533 4.208 9.78133 4.208 11.144C4.208 12.5253 4.47867 13.72 5.02 14.728C5.56133 15.7173 6.28933 16.4733 7.204 16.996C8.13733 17.5187 9.15467 17.78 10.256 17.78C11.6 17.78 12.7853 17.4067 13.812 16.66C14.8573 15.8947 15.5667 14.84 15.94 13.496H14.736C14.4 14.5413 13.8307 15.3533 13.028 15.932C12.2253 16.492 11.3013 16.772 10.256 16.772C9.37867 16.772 8.56667 16.5573 7.82 16.128C7.07333 15.6987 6.476 15.064 6.028 14.224C5.59867 13.384 5.384 12.376 5.384 11.2C5.384 10.0053 5.59867 8.988 6.028 8.148C6.476 7.28933 7.07333 6.64533 7.82 6.216C8.56667 5.78667 9.37867 5.572 10.256 5.572C11.2827 5.572 12.2067 5.86133 13.028 6.44C13.8493 7 14.4187 7.80267 14.736 8.848H15.94C15.5667 7.48533 14.8667 6.43067 13.84 5.684C12.8133 4.93733 11.6187 4.564 10.256 4.564ZM32.8255 2.408V10.612H40.6655V11.676H32.8255V19.936H41.5055V21H31.5655V1.344H41.5055V2.408H32.8255ZM46.5794 2.408V10.612H54.4194V11.676H46.5794V19.936H55.2594V21H45.3194V1.344H55.2594V2.408H46.5794ZM64.7573 21.196C63.488 21.196 62.3773 20.972 61.4253 20.524C60.4733 20.076 59.7267 19.4693 59.1853 18.704C58.6627 17.9387 58.364 17.0893 58.2893 16.156H59.6053C59.7547 17.1827 60.2307 18.0973 61.0333 18.9C61.8547 19.7027 63.096 20.104 64.7573 20.104C65.728 20.104 66.568 19.9267 67.2773 19.572C68.0053 19.2173 68.5653 18.732 68.9573 18.116C69.3493 17.5 69.5453 16.8187 69.5453 16.072C69.5453 15.12 69.312 14.364 68.8453 13.804C68.3973 13.244 67.828 12.824 67.1373 12.544C66.4653 12.264 65.5507 11.9653 64.3933 11.648C63.124 11.312 62.0973 10.976 61.3133 10.64C60.548 10.304 59.8947 9.79067 59.3533 9.1C58.8307 8.39067 58.5693 7.42933 58.5693 6.216C58.5693 5.28267 58.812 4.43333 59.2973 3.668C59.8013 2.884 60.5107 2.268 61.4253 1.82C62.34 1.372 63.3947 1.148 64.5893 1.148C66.3253 1.148 67.7253 1.57733 68.7893 2.436C69.8533 3.29467 70.488 4.34933 70.6933 5.6H69.3493C69.2373 5.096 68.9853 4.58267 68.5933 4.06C68.22 3.53733 67.6787 3.108 66.9693 2.772C66.2787 2.41733 65.448 2.24 64.4773 2.24C63.1707 2.24 62.0693 2.604 61.1733 3.332C60.2773 4.04133 59.8293 4.99333 59.8293 6.188C59.8293 7.14 60.0627 7.90533 60.5293 8.484C60.996 9.044 61.5653 9.47333 62.2373 9.772C62.928 10.052 63.852 10.3413 65.0093 10.64C66.2973 10.9947 67.3147 11.34 68.0613 11.676C68.8267 11.9933 69.4707 12.5067 69.9933 13.216C70.5347 13.9067 70.8053 14.8493 70.8053 16.044C70.8053 16.9213 70.572 17.752 70.1053 18.536C69.6387 19.32 68.948 19.964 68.0333 20.468C67.1373 20.9533 66.0453 21.196 64.7573 21.196ZM81.5836 20.076C85.0929 17.6493 87.8556 15.3067 89.8716 13.048C91.9063 10.7893 92.9236 8.624 92.9236 6.552C92.9236 5.18933 92.5596 4.07867 91.8316 3.22C91.1223 2.36133 89.9556 1.932 88.3316 1.932C86.7076 1.932 85.4663 2.42667 84.6076 3.416C83.7489 4.40533 83.2636 5.712 83.1516 7.336H81.9196C82.0503 5.28267 82.6849 3.68667 83.8236 2.548C84.9623 1.40933 86.4649 0.839999 88.3316 0.839999C90.0303 0.839999 91.4209 1.316 92.5036 2.268C93.6049 3.22 94.1556 4.63867 94.1556 6.524C94.1556 8.85733 93.0823 11.2093 90.9356 13.58C88.8076 15.9507 86.3716 18.0413 83.6276 19.852H94.7996V20.916H81.5836V20.076ZM98.0283 10.948C98.0283 7.71867 98.495 5.236 99.4283 3.5C100.362 1.74533 102.079 0.867999 104.58 0.867999C107.063 0.867999 108.771 1.74533 109.704 3.5C110.638 5.236 111.104 7.71867 111.104 10.948C111.104 14.2147 110.638 16.7347 109.704 18.508C108.771 20.2627 107.063 21.14 104.58 21.14C102.079 21.14 100.362 20.2627 99.4283 18.508C98.495 16.7347 98.0283 14.2147 98.0283 10.948ZM109.872 10.948C109.872 9.08133 109.732 7.504 109.452 6.216C109.191 4.928 108.668 3.91067 107.884 3.164C107.119 2.39867 106.018 2.016 104.58 2.016C103.143 2.016 102.032 2.39867 101.248 3.164C100.483 3.91067 99.9603 4.928 99.6803 6.216C99.419 7.504 99.2883 9.08133 99.2883 10.948C99.2883 12.852 99.419 14.4573 99.6803 15.764C99.9603 17.052 100.483 18.0787 101.248 18.844C102.032 19.6093 103.143 19.992 104.58 19.992C106.018 19.992 107.119 19.6093 107.884 18.844C108.668 18.0787 109.191 17.052 109.452 15.764C109.732 14.4573 109.872 12.852 109.872 10.948ZM114.396 20.076C117.905 17.6493 120.668 15.3067 122.684 13.048C124.719 10.7893 125.736 8.624 125.736 6.552C125.736 5.18933 125.372 4.07867 124.644 3.22C123.935 2.36133 122.768 1.932 121.144 1.932C119.52 1.932 118.279 2.42667 117.42 3.416C116.561 4.40533 116.076 5.712 115.964 7.336H114.732C114.863 5.28267 115.497 3.68667 116.636 2.548C117.775 1.40933 119.277 0.839999 121.144 0.839999C122.843 0.839999 124.233 1.316 125.316 2.268C126.417 3.22 126.968 4.63867 126.968 6.524C126.968 8.85733 125.895 11.2093 123.748 13.58C121.62 15.9507 119.184 18.0413 116.44 19.852H127.612V20.916H114.396V20.076ZM130.757 6.3C130.925 4.60133 131.578 3.26667 132.717 2.296C133.874 1.32533 135.396 0.839999 137.281 0.839999C138.494 0.839999 139.53 1.064 140.389 1.512C141.248 1.94133 141.901 2.52933 142.349 3.276C142.797 4.02267 143.021 4.872 143.021 5.824C143.021 7.01867 142.657 8.05467 141.929 8.932C141.201 9.79067 140.09 10.304 138.597 10.472V10.64C140.034 10.864 141.192 11.4147 142.069 12.292C142.946 13.1693 143.385 14.3453 143.385 15.82C143.385 17.388 142.862 18.676 141.817 19.684C140.79 20.6733 139.278 21.168 137.281 21.168C135.396 21.168 133.837 20.664 132.605 19.656C131.392 18.648 130.664 17.22 130.421 15.372H131.653C131.877 16.7533 132.474 17.8827 133.445 18.76C134.416 19.6187 135.694 20.048 137.281 20.048C138.886 20.048 140.1 19.6467 140.921 18.844C141.761 18.0413 142.181 17.0053 142.181 15.736C142.181 14.2053 141.593 13.0573 140.417 12.292C139.26 11.5267 137.598 11.144 135.433 11.144H134.901V10.052H135.461C139.68 10.0333 141.789 8.652 141.789 5.908C141.789 4.71333 141.388 3.752 140.585 3.024C139.801 2.296 138.69 1.932 137.253 1.932C135.853 1.932 134.668 2.30533 133.697 3.052C132.745 3.78 132.176 4.86267 131.989 6.3H130.757Z" fill="white"/>
</svg>
