<svg width="43" height="43" viewBox="0 0 43 43" fill="none" xmlns="http://www.w3.org/2000/svg">
<path d="M13.9583 6C9.01871 6 5 10.0187 5 14.9583V29.2917C5 34.2313 9.01871 38.25 13.9583 38.25H28.2917C33.2313 38.25 37.25 34.2313 37.25 29.2917V14.9583C37.25 10.0187 33.2313 6 28.2917 6H13.9583ZM13.9583 9.58333H28.2917C31.2551 9.58333 33.6667 11.9949 33.6667 14.9583V29.2917C33.6667 32.2551 31.2551 34.6667 28.2917 34.6667H13.9583C10.9949 34.6667 8.58333 32.2551 8.58333 29.2917V14.9583C8.58333 11.9949 10.9949 9.58333 13.9583 9.58333ZM30.0833 11.375C29.0938 11.375 28.2917 12.1772 28.2917 13.1667C28.2917 14.1562 29.0938 14.9583 30.0833 14.9583C31.0728 14.9583 31.875 14.1562 31.875 13.1667C31.875 12.1772 31.0728 11.375 30.0833 11.375ZM21.125 13.1667C16.1854 13.1667 12.1667 17.1854 12.1667 22.125C12.1667 27.0646 16.1854 31.0833 21.125 31.0833C26.0646 31.0833 30.0833 27.0646 30.0833 22.125C30.0833 17.1854 26.0646 13.1667 21.125 13.1667ZM21.125 16.75C24.0884 16.75 26.5 19.1616 26.5 22.125C26.5 25.0884 24.0884 27.5 21.125 27.5C18.1616 27.5 15.75 25.0884 15.75 22.125C15.75 19.1616 18.1616 16.75 21.125 16.75Z" fill="#3A0757"/>
</svg>
