<svg width="38" height="38" viewBox="0 0 38 38" fill="none" xmlns="http://www.w3.org/2000/svg">
<path d="M31.16 3.03998H6.84004C4.74244 3.03998 3.04004 4.74238 3.04004 6.83998V31.16C3.04004 33.2576 4.74244 34.96 6.84004 34.96H31.16C33.2576 34.96 34.96 33.2576 34.96 31.16V6.83998C34.96 4.74238 33.2576 3.03998 31.16 3.03998ZM12.92 15.2V29.64H8.36004V15.2H12.92ZM8.36004 10.9972C8.36004 9.93318 9.27204 9.11998 10.64 9.11998C12.008 9.11998 12.8668 9.93318 12.92 10.9972C12.92 12.0612 12.0688 12.92 10.64 12.92C9.27204 12.92 8.36004 12.0612 8.36004 10.9972ZM29.64 29.64H25.08C25.08 29.64 25.08 22.6024 25.08 22.04C25.08 20.52 24.32 19 22.42 18.9696H22.3592C20.52 18.9696 19.76 20.5352 19.76 22.04C19.76 22.7316 19.76 29.64 19.76 29.64H15.2V15.2H19.76V17.1456C19.76 17.1456 21.2268 15.2 24.1756 15.2C27.1928 15.2 29.64 17.2748 29.64 21.4776V29.64Z" fill="#3A0757"/>
</svg>
