<svg width="79" height="77" viewBox="0 0 79 77" fill="none" xmlns="http://www.w3.org/2000/svg">
<ellipse cx="39.32" cy="38.2851" rx="39.32" ry="38.2851" fill="#5F4484"/>
<path d="M39.2409 23.6606C34.5848 23.6606 33.9993 23.6796 32.1699 23.7518C30.3405 23.8277 29.0945 24.0821 28.0028 24.458C26.8578 24.8392 25.8206 25.4372 24.9638 26.2102C24.0911 26.969 23.4156 27.8869 22.9843 28.9002C22.5596 29.8646 22.2701 30.9695 22.1864 32.5831C22.1049 34.2062 22.0835 34.7226 22.0835 38.8497C22.0835 42.973 22.1049 43.4894 22.1864 45.1087C22.2722 46.7261 22.5596 47.8291 22.9843 48.7954C23.4239 49.7939 24.0094 50.6406 24.9638 51.4854C25.916 52.3302 26.8726 52.8504 28.0007 53.2376C29.0945 53.6135 30.3384 53.8698 32.1656 53.9438C33.9972 54.016 34.5805 54.035 39.2409 54.035C43.9013 54.035 44.4825 54.016 46.3141 53.9438C48.1392 53.8679 49.3896 53.6135 50.4812 53.2376C51.6255 52.8562 52.662 52.2582 53.5181 51.4854C54.4725 50.6406 55.0579 49.7939 55.4976 48.7954C55.9201 47.8291 56.2096 46.7261 56.2954 45.1087C56.3769 43.4894 56.3984 42.973 56.3984 38.8478C56.3984 34.7226 56.3769 34.2062 56.2954 32.585C56.2096 30.9695 55.9201 29.8646 55.4976 28.9002C55.0664 27.8869 54.3908 26.9689 53.5181 26.2102C52.6616 25.4369 51.6243 24.8389 50.4791 24.458C49.3853 24.0821 48.1371 23.8258 46.3119 23.7518C44.4804 23.6796 43.8992 23.6606 39.2366 23.6606H39.2431H39.2409ZM37.7032 26.3981H39.2431C43.8241 26.3981 44.3667 26.4114 46.1747 26.4855C47.8475 26.5519 48.7569 26.8006 49.3617 27.0075C50.1616 27.2828 50.7343 27.6131 51.3348 28.1447C51.9353 28.6762 52.3063 29.1812 52.6173 29.8912C52.8532 30.4246 53.132 31.2295 53.2071 32.7103C53.2907 34.3106 53.3079 34.7909 53.3079 38.844C53.3079 42.8971 53.2907 43.3793 53.2071 44.9796C53.132 46.4604 52.8511 47.2634 52.6173 47.7987C52.3422 48.4582 51.9032 49.0544 51.3326 49.5434C50.7321 50.0749 50.1616 50.4033 49.3595 50.6786C48.759 50.8874 47.8497 51.1342 46.1747 51.2026C44.3667 51.2747 43.8241 51.2918 39.2431 51.2918C34.662 51.2918 34.1173 51.2747 32.3093 51.2026C30.6365 51.1342 29.7293 50.8874 29.1245 50.6786C28.3792 50.4355 27.705 50.0475 27.1514 49.5434C26.5804 49.0536 26.1406 48.4568 25.8646 47.7968C25.6308 47.2634 25.3498 46.4585 25.2748 44.9777C25.1933 43.3774 25.1761 42.8971 25.1761 38.8402C25.1761 34.7852 25.1933 34.3068 25.2748 32.7065C25.352 31.2257 25.6308 30.4208 25.8667 29.8855C26.1777 29.1774 26.5509 28.6705 27.1514 28.139C27.7519 27.6074 28.3224 27.279 29.1245 27.0037C29.7293 26.7949 30.6365 26.5481 32.3093 26.4798C33.8921 26.4152 34.5055 26.3962 37.7032 26.3943V26.3981ZM48.4009 28.9192C48.1305 28.9192 47.8628 28.9663 47.613 29.0579C47.3632 29.1495 47.1362 29.2838 46.945 29.453C46.7538 29.6222 46.6022 29.8231 46.4987 30.0442C46.3952 30.2653 46.342 30.5023 46.342 30.7417C46.342 30.981 46.3952 31.218 46.4987 31.4391C46.6022 31.6602 46.7538 31.8611 46.945 32.0303C47.1362 32.1996 47.3632 32.3338 47.613 32.4254C47.8628 32.517 48.1305 32.5641 48.4009 32.5641C48.9469 32.5641 49.4706 32.3721 49.8567 32.0303C50.2428 31.6886 50.4598 31.225 50.4598 30.7417C50.4598 30.2583 50.2428 29.7948 49.8567 29.453C49.4706 29.1112 48.9469 28.9192 48.4009 28.9192ZM39.2431 31.0492C38.0744 31.0331 36.9137 31.2229 35.8287 31.6076C34.7437 31.9923 33.7559 32.5643 32.923 33.2901C32.0901 34.016 31.4286 34.8812 30.9771 35.8355C30.5256 36.7899 30.2931 37.8141 30.2931 38.8488C30.2931 39.8834 30.5256 40.9076 30.9771 41.862C31.4286 42.8163 32.0901 43.6815 32.923 44.4074C33.7559 45.1333 34.7437 45.7052 35.8287 46.0899C36.9137 46.4746 38.0744 46.6644 39.2431 46.6483C41.5562 46.6164 43.7624 45.7806 45.3854 44.3214C47.0084 42.8621 47.9181 40.8965 47.9181 38.8488C47.9181 36.801 47.0084 34.8354 45.3854 33.3762C43.7624 31.9169 41.5562 31.0811 39.2431 31.0492ZM39.2431 33.7848C40.7601 33.7848 42.215 34.3182 43.2876 35.2677C44.3603 36.2172 44.9629 37.505 44.9629 38.8478C44.9629 40.1906 44.3603 41.4784 43.2876 42.4279C42.215 43.3774 40.7601 43.9108 39.2431 43.9108C37.7261 43.9108 36.2712 43.3774 35.1985 42.4279C34.1258 41.4784 33.5232 40.1906 33.5232 38.8478C33.5232 37.505 34.1258 36.2172 35.1985 35.2677C36.2712 34.3182 37.7261 33.7848 39.2431 33.7848Z" fill="white"/>
</svg>
