<svg width="491" height="513" viewBox="0 0 491 513" fill="none" xmlns="http://www.w3.org/2000/svg">
<path opacity="0.7" d="M431.917 256.182C431.885 300.036 415.544 342.311 386.071 374.785C356.599 407.26 316.103 427.613 272.457 431.887C228.812 436.16 185.137 424.049 149.925 397.908C114.714 371.767 90.4826 333.465 81.9441 290.45C73.4056 247.435 81.1699 202.781 103.727 165.173C126.285 127.565 162.022 99.6903 203.991 86.9694C245.96 74.2485 291.16 77.5908 330.801 96.3464C370.443 115.102 401.692 147.93 418.472 188.447C427.359 209.923 431.927 232.94 431.917 256.182Z" fill="url(#paint0_linear_3908_1430)" fill-opacity="0.2"/>
<path d="M373.116 30.2447L366.198 26.7225L366.859 25.3594L373.81 28.8985L373.116 30.2447Z" fill="#0C9C91"/>
<path d="M377.527 32.5559C376.418 31.8955 375.249 31.3367 374.098 30.744L374.809 29.4062C375.96 29.9989 377.137 30.5662 378.255 31.2266L377.527 32.5559Z" fill="#0C9C91"/>
<path d="M379.847 33.8676L378.713 33.2241L379.45 31.9033L380.584 32.5468L379.847 33.8676Z" fill="#0C9C91"/>
<path d="M382.159 33.4402L381.412 34.7588L381.979 35.0802L382.727 33.7617L382.159 33.4402Z" fill="#0C9C91"/>
<path d="M383.487 35.9339L382.92 35.6122L383.673 34.2998L384.249 34.63L383.487 35.9339Z" fill="#0C9C91"/>
<path d="M384.977 36.7809L384.41 36.4592L385.181 35.1553L385.748 35.477L384.977 36.7809Z" fill="#0C9C91"/>
<path d="M386.468 37.6361C386.29 37.5175 386.095 37.4159 385.909 37.3058L386.68 36.002L387.247 36.3406L386.468 37.6361Z" fill="#0C9C91"/>
<path d="M389.915 39.8037L389.364 39.4566L390.16 38.1611L390.71 38.5167L389.915 39.8037Z" fill="#0C9C91"/>
<path d="M394.181 42.4791L393.631 42.132L394.452 40.8535L395.002 41.2091L394.181 42.4791Z" fill="#0C9C91"/>
<path d="M400.641 46.8307L396.399 43.9012L397.238 42.6396L401.496 45.5861L400.641 46.8307Z" fill="#0C9C91"/>
<path d="M406.128 50.6915C405.112 49.8871 404.019 49.1844 402.961 48.4308L403.808 47.2031C404.874 47.9482 405.975 48.6594 407 49.4722L406.128 50.6915Z" fill="#0C9C91"/>
<path d="M409.667 53.3757L407.703 51.8856L408.609 50.6748L410.582 52.1734L409.667 53.3757Z" fill="#0C9C91"/>
<path d="M412.893 55.8227L411.911 55.0776L412.842 53.8838L413.825 54.6373L412.893 55.8227Z" fill="#0C9C91"/>
<path d="M415.18 57.6349L414.231 56.8475L415.171 55.6621L416.128 56.4495L415.18 57.6349Z" fill="#0C9C91"/>
<path d="M416.762 58.947L416.136 58.422L417.084 57.2451L417.719 57.7701L416.762 58.947Z" fill="#0C9C91"/>
<path d="M419.425 58.5235L418.455 59.6904L419.087 60.2161L420.057 59.0491L419.425 58.5235Z" fill="#0C9C91"/>
<path d="M420.531 62.0797L419.904 61.5548L420.886 60.4033L421.513 60.9283L420.531 62.0797Z" fill="#0C9C91"/>
<path d="M422.419 63.6465L421.792 63.13L422.783 61.9785L423.409 62.5035L422.419 63.6465Z" fill="#0C9C91"/>
<path d="M424.256 65.2806L423.646 64.7303L424.646 63.5957L425.255 64.146L424.256 65.2806Z" fill="#0C9C91"/>
<path d="M426.067 66.931L425.466 66.3807L426.473 65.2461L427.083 65.8049L426.067 66.931Z" fill="#0C9C91"/>
<path d="M429.395 69.954L429.099 69.6746L430.123 68.5654L430.428 68.8448L429.395 69.954Z" fill="#0C9C91"/>
<path d="M431.918 72.299L431.63 72.0196L432.68 70.9189L432.968 71.2068L431.918 72.299Z" fill="#0C9C91"/>
<path d="M434.374 74.7378L434.086 74.45L435.144 73.3662L435.432 73.6541L434.374 74.7378Z" fill="#0C9C91"/>
<path d="M436.82 77.1672L436.532 76.8793L437.607 75.8125L437.895 76.1004L436.82 77.1672Z" fill="#0C9C91"/>
<path d="M439.268 79.5975L438.988 79.3096L440.072 78.2598L440.36 78.5476L439.268 79.5975Z" fill="#0C9C91"/>
<path d="M444.534 85.3044L439.276 79.6062L440.369 78.5479L445.652 84.2884L444.534 85.3044Z" fill="#0C9C91"/>
<path d="M447.895 89.0123C447.048 88.0047 446.201 87.0649 445.354 86.1166L446.481 85.1006C447.327 86.0573 448.25 87.0056 449.071 88.0132L447.895 89.0123Z" fill="#0C9C91"/>
<path d="M449.588 91.0447L448.741 90.0541L449.893 89.0635L450.739 90.0626L449.588 91.0447Z" fill="#0C9C91"/>
<path d="M451.18 92.9332L450.757 92.4336L451.917 91.46L452.34 91.968L451.18 92.9332Z" fill="#0C9C91"/>
<path d="M452.281 94.245L451.866 93.7455L453.026 92.7803L453.45 93.2798L452.281 94.245Z" fill="#0C9C91"/>
<path d="M453.389 95.5569L452.975 95.0573L454.143 94.1006L454.566 94.6001L453.389 95.5569Z" fill="#0C9C91"/>
<path d="M454.482 96.8782C454.346 96.7088 454.219 96.531 454.075 96.3702L455.252 95.4219C455.396 95.5827 455.523 95.7605 455.658 95.9299L454.482 96.8782Z" fill="#0C9C91"/>
<path d="M456.963 100.104L456.565 99.5876L457.759 98.6562L458.157 99.1727L456.963 100.104Z" fill="#0C9C91"/>
<path d="M460.044 104.091L459.646 103.575L460.849 102.669L461.255 103.185L460.044 104.091Z" fill="#0C9C91"/>
<path d="M464.584 110.417L461.62 106.209L462.839 105.312L465.82 109.553L464.584 110.417Z" fill="#0C9C91"/>
<path d="M468.385 115.953C467.707 114.844 466.945 113.786 466.2 112.728L467.453 111.881C468.207 112.948 468.969 114.006 469.646 115.124L468.385 115.953Z" fill="#0C9C91"/>
<path d="M470.78 119.697L469.451 117.614L470.721 116.793L472.05 118.884L470.78 119.697Z" fill="#0C9C91"/>
<path d="M472.956 123.109L472.287 122.067L473.574 121.271L474.243 122.313L472.956 123.109Z" fill="#0C9C91"/>
<path d="M474.464 125.598L473.846 124.531L475.141 123.752L475.759 124.827L474.464 125.598Z" fill="#0C9C91"/>
<path d="M475.488 127.376L475.082 126.673L476.386 125.902L476.792 126.614L475.488 127.376Z" fill="#0C9C91"/>
<path d="M476.716 129.501L476.31 128.798L477.622 128.036L478.028 128.747L476.716 129.501Z" fill="#0C9C91"/>
<path d="M477.944 131.627L477.537 130.924L478.849 130.179L479.264 130.881L477.944 131.627Z" fill="#0C9C91"/>
<path d="M479.171 133.752L478.765 133.049L480.085 132.312L480.492 133.024L479.171 133.752Z" fill="#0C9C91"/>
<path d="M480.314 135.919L479.941 135.199L481.271 134.479L481.652 135.208L480.314 135.919Z" fill="#0C9C91"/>
<path d="M481.448 138.095L481.067 137.375L482.405 136.664L482.786 137.392L481.448 138.095Z" fill="#0C9C91"/>
<path d="M483.514 142.091L483.328 141.727L484.683 141.05L484.869 141.414L483.514 142.091Z" fill="#0C9C91"/>
<path d="M485.065 145.174L484.896 144.809L486.25 144.141L486.428 144.513L485.065 145.174Z" fill="#0C9C91"/>
<path d="M486.512 148.306L486.343 147.934L487.714 147.29L487.884 147.663L486.512 148.306Z" fill="#0C9C91"/>
<path d="M487.968 151.439L487.799 151.066L489.17 150.439L489.348 150.812L487.968 151.439Z" fill="#0C9C91"/>
<path d="M489.416 154.571L489.247 154.198L490.636 153.589L490.805 153.961L489.416 154.571Z" fill="#0C9C91"/>
<path d="M258.746 1.71902L256.02 1.70208V0.186523L258.763 0.203457L258.746 1.71902Z" fill="#0C9C91"/>
<path d="M260.498 1.73692L259.135 1.71999L259.152 0.212891L260.523 0.229824L260.498 1.73692Z" fill="#0C9C91"/>
<path d="M260.996 0.231791L260.967 1.74707L261.424 1.75601L261.454 0.240728L260.996 0.231791Z" fill="#0C9C91"/>
<path d="M262.303 1.77891L262.074 1.77044L262.108 0.254883L262.337 0.26335L262.303 1.77891Z" fill="#0C9C91"/>
<path d="M262.724 0.267267L262.682 1.78223L262.91 1.78857L262.952 0.27361L262.724 0.267267Z" fill="#0C9C91"/>
<path d="M263.334 0.286744L263.293 1.80176L263.521 1.80794L263.562 0.292927L263.334 0.286744Z" fill="#0C9C91"/>
<path d="M264.114 1.82969L263.877 1.82123L263.928 0.305664L264.156 0.314131L264.114 1.82969Z" fill="#0C9C91"/>
<path d="M265.536 1.88047L265.308 1.87201L265.367 0.356445L265.595 0.364912L265.536 1.88047Z" fill="#0C9C91"/>
<path d="M267.166 0.430164L267.101 1.94434L267.329 1.95415L267.394 0.439976L267.166 0.430164Z" fill="#0C9C91"/>
<path d="M270.041 2.08331L268.237 1.99017L268.305 0.474609L270.125 0.567744L270.041 2.08331Z" fill="#0C9C91"/>
<path d="M272.395 2.21969L271.032 2.13502L271.117 0.62793L272.497 0.712598L272.395 2.21969Z" fill="#0C9C91"/>
<path d="M273.184 0.756266L273.084 2.26855L273.954 2.3259L274.054 0.813606L273.184 0.756266Z" fill="#0C9C91"/>
<path d="M275.077 0.879185L274.965 2.39062L275.395 2.42248L275.507 0.911035L275.077 0.879185Z" fill="#0C9C91"/>
<path d="M276.4 2.50678L275.968 2.47291L276.078 0.96582L276.518 0.999688L276.4 2.50678Z" fill="#0C9C91"/>
<path d="M276.929 1.02162L276.807 2.53223L277.094 2.55551L277.216 1.04491L276.929 1.02162Z" fill="#0C9C91"/>
<path d="M277.974 2.63406L277.687 2.60866L277.814 1.10156L278.101 1.12696L277.974 2.63406Z" fill="#0C9C91"/>
<path d="M278.707 1.17893L278.572 2.68848L278.859 2.71412L278.994 1.20457L278.707 1.17893Z" fill="#0C9C91"/>
<path d="M279.693 2.7864L279.405 2.761L279.549 1.25391L279.829 1.27931L279.693 2.7864Z" fill="#0C9C91"/>
<path d="M281.189 5.63059e-05L281.037 1.51562L281.325 1.54441L281.477 0.0288435L281.189 5.63059e-05Z" fill="#0C9C91"/>
<path d="M281.279 1.41734L281.133 2.92578L281.419 2.95362L281.566 1.44518L281.279 1.41734Z" fill="#0C9C91"/>
<path d="M282.997 1.58835L282.84 3.0957L282.983 3.11067L283.141 1.60332L282.997 1.58835Z" fill="#0C9C91"/>
<path d="M284.189 3.24375L284.045 3.22682L284.214 1.71973L284.35 1.73666L284.189 3.24375Z" fill="#0C9C91"/>
<path d="M285.392 3.37884L285.248 3.36191L285.426 1.86328L285.57 1.87175L285.392 3.37884Z" fill="#0C9C91"/>
<path d="M286.602 3.52305L286.458 3.50612L286.636 1.99902L286.78 2.01596L286.602 3.52305Z" fill="#0C9C91"/>
<path d="M287.804 3.66758L287.66 3.65065L287.846 2.14355L287.99 2.16049L287.804 3.66758Z" fill="#0C9C91"/>
<path d="M39.5903 390.169C40.691 391.964 41.8425 393.725 42.9771 395.486L41.707 396.333C40.564 394.555 39.4125 392.785 38.3203 390.982L39.5903 390.169Z" fill="#0C9C91"/>
<path d="M37.4829 386.706C38.0248 387.612 38.5582 388.518 39.117 389.407L37.8301 390.194C37.2628 389.305 36.7294 388.391 36.1875 387.485L37.4829 386.706Z" fill="#0C9C91"/>
<path d="M36.3732 384.844L36.9151 385.758L35.6112 386.529L35.0693 385.614L36.3732 384.844Z" fill="#0C9C91"/>
<path d="M35.346 383.118L34.0332 383.875L34.2997 384.337L35.6125 383.58L35.346 383.118Z" fill="#0C9C91"/>
<path d="M34.6717 381.896L34.9342 382.362L33.6218 383.107L33.3594 382.65L34.6717 381.896Z" fill="#0C9C91"/>
<path d="M33.9862 380.687L34.2487 381.152L32.9278 381.897L32.6738 381.432L33.9862 380.687Z" fill="#0C9C91"/>
<path d="M33.3238 379.457L31.999 380.193L32.2581 380.66L33.5829 379.923L33.3238 379.457Z" fill="#0C9C91"/>
<path d="M31.7258 376.562L31.9798 377.028L30.642 377.748L30.3965 377.282L31.7258 376.562Z" fill="#0C9C91"/>
<path d="M29.8114 372.948L30.0569 373.414L28.7107 374.117L28.4736 373.643L29.8114 372.948Z" fill="#0C9C91"/>
<path d="M26.9755 367.283C27.5935 368.536 28.2032 369.823 28.8382 371.034L27.4835 371.72C26.8485 370.467 26.2388 369.18 25.6123 367.944L26.9755 367.283Z" fill="#0C9C91"/>
<path d="M24.6477 362.355C25.071 363.312 25.5367 364.261 25.9854 365.217L24.6223 365.869C24.1735 364.904 23.6994 363.956 23.2676 362.982L24.6477 362.355Z" fill="#0C9C91"/>
<path d="M23.1571 359.062L23.9784 360.89L22.5983 361.508L21.7686 359.671L23.1571 359.062Z" fill="#0C9C91"/>
<path d="M21.8446 356.048L22.2426 356.962L20.854 357.563L20.4561 356.641L21.8446 356.048Z" fill="#0C9C91"/>
<path d="M20.9302 353.854L21.3112 354.786L19.9142 355.37L19.5332 354.439L20.9302 353.854Z" fill="#0C9C91"/>
<path d="M20.2942 352.314L20.5482 352.933L19.1427 353.5L18.8887 352.89L20.2942 352.314Z" fill="#0C9C91"/>
<path d="M19.55 350.468L19.7871 351.086L18.3901 351.645L18.1445 351.027L19.55 350.468Z" fill="#0C9C91"/>
<path d="M18.8127 348.614L19.0583 349.232L17.6528 349.783L17.4072 349.165L18.8127 348.614Z" fill="#0C9C91"/>
<path d="M18.1021 346.751L18.3307 347.369L16.9168 347.911L16.6797 347.293L18.1021 346.751Z" fill="#0C9C91"/>
<path d="M17.399 344.889L17.6276 345.507L16.2136 346.04L15.9766 345.414L17.399 344.889Z" fill="#0C9C91"/>
<path d="M16.7047 343.009L16.9333 343.635L15.5108 344.16L15.2822 343.525L16.7047 343.009Z" fill="#0C9C91"/>
<path d="M15.4856 339.571L15.5872 339.885L14.1563 340.376L14.0547 340.062L15.4856 339.571Z" fill="#0C9C91"/>
<path d="M14.5803 336.912L14.6904 337.225L13.251 337.708L13.1494 337.386L14.5803 336.912Z" fill="#0C9C91"/>
<path d="M13.7164 334.246L13.818 334.559L12.3702 335.025L12.2686 334.712L13.7164 334.246Z" fill="#0C9C91"/>
<path d="M12.8619 331.57L12.9635 331.884L11.5157 332.341L11.4141 332.019L12.8619 331.57Z" fill="#0C9C91"/>
<path d="M12.0271 328.892L10.5742 329.323L10.6682 329.64L12.1211 329.208L12.0271 328.892Z" fill="#0C9C91"/>
<path d="M10.3303 322.815C10.8891 324.847 11.4395 326.871 12.0237 328.878L10.5674 329.309C9.94931 327.294 9.3905 325.254 8.87402 323.213L10.3303 322.815Z" fill="#0C9C91"/>
<path d="M9.3046 318.895L10.092 321.951L8.62726 322.341L7.83984 319.267L9.3046 318.895Z" fill="#0C9C91"/>
<path d="M8.77206 316.796L9.03453 317.82L7.5613 318.184L7.29883 317.151L8.77206 316.796Z" fill="#0C9C91"/>
<path d="M8.31405 314.839L8.43258 315.355L6.95936 315.702L6.84082 315.186L8.31405 314.839Z" fill="#0C9C91"/>
<path d="M7.99276 313.485L8.11976 314.002L6.63807 314.341L6.51953 313.824L7.99276 313.485Z" fill="#0C9C91"/>
<path d="M7.67994 312.121L7.79847 312.638L6.32524 312.976L6.19824 312.451L7.67994 312.121Z" fill="#0C9C91"/>
<path d="M7.38306 310.759L7.49313 311.284L6.0199 311.605L5.90137 311.089L7.38306 310.759Z" fill="#0C9C91"/>
<path d="M6.69751 307.524L6.80758 308.049L5.32589 308.354L5.21582 307.829L6.69751 307.524Z" fill="#0C9C91"/>
<path d="M5.91041 303.511L6.01201 304.027L4.52185 304.315L4.42871 303.79L5.91041 303.511Z" fill="#0C9C91"/>
<path d="M4.8095 297.271L5.52071 301.402L4.03055 301.665L3.31934 297.516L4.8095 297.271Z" fill="#0C9C91"/>
<path d="M3.99667 291.878L4.46235 295.011L2.97219 295.239L2.49805 292.09L3.99667 291.878Z" fill="#0C9C91"/>
<path d="M3.53053 288.296L3.78454 290.286L2.28591 290.48L2.02344 288.482L3.53053 288.296Z" fill="#0C9C91"/>
<path d="M3.14088 285.027L3.25095 286.026L1.74386 286.204L1.63379 285.205L3.14088 285.027Z" fill="#0C9C91"/>
<path d="M2.87917 282.675L2.98923 283.674L1.48214 283.835L1.37207 282.827L2.87917 282.675Z" fill="#0C9C91"/>
<path d="M2.71803 281.015L2.7773 281.675L1.27021 281.819L1.21094 281.159L2.71803 281.015Z" fill="#0C9C91"/>
<path d="M2.53151 279.024L2.59078 279.685L1.08368 279.829L1.02441 279.16L2.53151 279.024Z" fill="#0C9C91"/>
<path d="M2.35377 277.044L2.41304 277.704L0.905947 277.831L0.84668 277.162L2.35377 277.044Z" fill="#0C9C91"/>
<path d="M2.21022 275.055L2.26102 275.715L0.753926 275.834L0.703125 275.165L2.21022 275.055Z" fill="#0C9C91"/>
<path d="M2.07416 273.064L2.11649 273.725L0.609395 273.826L0.558594 273.166L2.07416 273.064Z" fill="#0C9C91"/>
<path d="M1.9472 271.075L1.98107 271.736L0.465508 271.829L0.431641 271.16L1.9472 271.075Z" fill="#0C9C91"/>
<path d="M1.761 267.425L1.77793 267.755L0.27084 267.823L0.253906 267.484L1.761 267.425Z" fill="#0C9C91"/>
<path d="M1.65944 264.614L1.67637 264.953L0.160811 265.004L0.152344 264.665L1.65944 264.614Z" fill="#0C9C91"/>
<path d="M1.57448 261.812L1.59141 262.142L0.0758496 262.184L0.0673828 261.845L1.57448 261.812Z" fill="#0C9C91"/>
<path d="M1.56431 259.014L0.0488281 259.029L0.0522282 259.359L1.56771 259.344L1.56431 259.014Z" fill="#0C9C91"/>
<path d="M1.51556 256.207V256.537H0V256.207H1.51556Z" fill="#0C9C91"/>
<path d="M299.2 507.054C301.385 506.681 303.561 506.275 305.737 505.852L306.024 507.342C303.84 507.765 301.653 508.169 299.463 508.552L299.2 507.054Z" fill="#0C9C91"/>
<path d="M294.993 507.739C296.085 507.569 297.178 507.4 298.27 507.214L298.515 508.704C297.423 508.89 296.322 509.068 295.222 509.229L294.993 507.739Z" fill="#0C9C91"/>
<path d="M292.732 508.078L293.842 507.917L294.062 509.416L292.953 509.577L292.732 508.078Z" fill="#0C9C91"/>
<path d="M290.641 508.374L291.191 508.298L291.403 509.788L290.844 509.873L290.641 508.374Z" fill="#0C9C91"/>
<path d="M289.717 508.503L289.163 508.574L289.357 510.077L289.911 510.006L289.717 508.503Z" fill="#0C9C91"/>
<path d="M287.729 508.746L288.287 508.679L288.474 510.177L287.915 510.254L287.729 508.746Z" fill="#0C9C91"/>
<path d="M286.272 508.925L286.823 508.857L287.009 510.364L286.45 510.424L286.272 508.925Z" fill="#0C9C91"/>
<path d="M283.328 509.279L282.772 509.337L282.93 510.844L283.486 510.786L283.328 509.279Z" fill="#0C9C91"/>
<path d="M278.517 509.72L279.075 509.678L279.211 511.176L278.652 511.236L278.517 509.72Z" fill="#0C9C91"/>
<path d="M271.869 510.22C273.334 510.119 274.799 510.034 276.272 509.907L276.39 511.414C274.917 511.541 273.435 511.626 271.962 511.736L271.869 510.22Z" fill="#0C9C91"/>
<path d="M266.13 510.509C267.239 510.458 268.348 510.424 269.457 510.356L269.542 511.864C268.424 511.931 267.307 511.965 266.155 512.024L266.13 510.509Z" fill="#0C9C91"/>
<path d="M262.328 510.635L264.436 510.567L264.487 512.083L262.362 512.142L262.328 510.635Z" fill="#0C9C91"/>
<path d="M259.899 510.686L258.841 510.701L258.863 512.217L259.921 512.201L259.899 510.686Z" fill="#0C9C91"/>
<path d="M259.415 509.703L258.356 509.714L258.372 511.229L259.43 511.219L259.415 509.703Z" fill="#0C9C91"/>
<path d="M254.614 510.678L255.308 510.695V512.202L254.605 512.193L254.614 510.678Z" fill="#0C9C91"/>
<path d="M252.515 510.626L253.209 510.643L253.192 512.158L252.489 512.142L252.515 510.626Z" fill="#0C9C91"/>
<path d="M250.415 510.576L251.109 510.593L251.084 512.109L250.381 512.092L250.415 510.576Z" fill="#0C9C91"/>
<path d="M248.314 510.534L249.009 510.543L248.966 512.058L248.264 512.041L248.314 510.534Z" fill="#0C9C91"/>
<path d="M246.215 510.482L246.91 510.499L246.859 512.006L246.156 511.998L246.215 510.482Z" fill="#0C9C91"/>
<path d="M244.116 510.432L244.81 510.449L244.742 511.964L244.048 511.947L244.116 510.432Z" fill="#0C9C91"/>
<path d="M240.272 510.169L240.619 510.194L240.526 511.701L240.179 511.676L240.272 510.169Z" fill="#0C9C91"/>
<path d="M237.325 509.966L237.672 509.991L237.562 511.498L237.215 511.473L237.325 509.966Z" fill="#0C9C91"/>
<path d="M234.379 509.763L234.726 509.788L234.599 511.295L234.252 511.27L234.379 509.763Z" fill="#0C9C91"/>
<path d="M231.432 509.518L231.779 509.56L231.635 511.067L231.288 511.025L231.432 509.518Z" fill="#0C9C91"/>
<path d="M228.503 509.179L228.85 509.221L228.689 510.72L228.342 510.686L228.503 509.179Z" fill="#0C9C91"/>
<path d="M221.898 508.417L228.494 509.179L228.333 510.686L221.703 509.916L221.898 508.417Z" fill="#0C9C91"/>
<path d="M217.682 507.79C218.774 507.959 219.858 508.163 220.958 508.307L220.755 509.805C219.646 509.661 218.554 509.458 217.453 509.289L217.682 507.79Z" fill="#0C9C91"/>
<path d="M215.43 507.426L216.531 507.604L216.294 509.094L215.185 508.916L215.43 507.426Z" fill="#0C9C91"/>
<path d="M213.339 507.079L213.889 507.172L213.644 508.662L213.085 508.578L213.339 507.079Z" fill="#0C9C91"/>
<path d="M211.891 506.851L212.442 506.935L212.188 508.425L211.629 508.341L211.891 506.851Z" fill="#0C9C91"/>
<path d="M210.443 506.613L210.993 506.698L210.722 508.188L210.172 508.103L210.443 506.613Z" fill="#0C9C91"/>
<path d="M208.995 506.367C209.173 506.367 209.359 506.435 209.546 506.46L209.266 507.95C209.088 507.95 208.902 507.9 208.716 507.857L208.995 506.367Z" fill="#0C9C91"/>
<path d="M205.582 505.656L206.133 505.766L205.836 507.256L205.286 507.138L205.582 505.656Z" fill="#0C9C91"/>
<path d="M201.367 504.768L201.909 504.886L201.595 506.359L201.045 506.249L201.367 504.768Z" fill="#0C9C91"/>
<path d="M194.873 503.26C196.295 503.624 197.709 504.03 199.157 504.301L198.818 505.774C197.362 505.504 195.948 505.089 194.509 504.733L194.873 503.26Z" fill="#0C9C91"/>
<path d="M189.31 501.83L192.536 502.66L192.155 504.125L188.912 503.286L189.31 501.83Z" fill="#0C9C91"/>
<path d="M185.635 500.831L186.642 501.136L187.667 501.407L187.26 502.863L186.236 502.592L185.22 502.287L185.635 500.831Z" fill="#0C9C91"/>
<path d="M182.324 499.814L183.332 500.119L182.909 501.576L181.893 501.262L182.324 499.814Z" fill="#0C9C91"/>
<path d="M179.931 499.068L179.486 500.517L180.498 500.827L180.943 499.379L179.931 499.068Z" fill="#0C9C91"/>
<path d="M178.261 498.562L178.93 498.765L178.473 500.213L177.804 500.001L178.261 498.562Z" fill="#0C9C91"/>
<path d="M176.254 497.943L176.923 498.155L176.449 499.586L175.78 499.383L176.254 497.943Z" fill="#0C9C91"/>
<path d="M174.264 497.266L174.924 497.494L174.442 498.934L173.781 498.697L174.264 497.266Z" fill="#0C9C91"/>
<path d="M172.292 496.555L172.952 496.792L172.452 498.223L171.792 497.986L172.292 496.555Z" fill="#0C9C91"/>
<path d="M170.309 495.826L169.799 497.253L170.461 497.489L170.971 496.062L170.309 495.826Z" fill="#0C9C91"/>
<path d="M168.337 495.141L168.998 495.378L168.473 496.8L167.812 496.563L168.337 495.141Z" fill="#0C9C91"/>
<path d="M164.714 493.837L165.044 493.964L164.502 495.378L164.172 495.251L164.714 493.837Z" fill="#0C9C91"/>
<path d="M161.979 492.72L162.3 492.847L161.75 494.252L161.42 494.125L161.979 492.72Z" fill="#0C9C91"/>
<path d="M159.243 491.573L158.67 492.976L158.991 493.107L159.565 491.704L159.243 491.573Z" fill="#0C9C91"/>
<path d="M156.509 490.483L156.839 490.61L156.247 492.007L155.925 491.872L156.509 490.483Z" fill="#0C9C91"/>
<path d="M153.791 489.333L154.113 489.477L153.503 490.857L153.182 490.713L153.791 489.333Z" fill="#0C9C91"/>
<path d="M147.763 486.538L153.791 489.324L153.181 490.712L147.119 487.91L147.763 486.538Z" fill="#0C9C91"/>
<path d="M143.936 484.734C144.926 485.234 145.942 485.674 146.942 486.14L146.298 487.512C145.29 487.037 144.266 486.597 143.275 486.089L143.936 484.734Z" fill="#0C9C91"/>
<path d="M141.87 483.686L142.86 484.202L142.191 485.557L141.192 485.04L141.87 483.686Z" fill="#0C9C91"/>
<path d="M139.99 482.712L140.49 482.974L139.796 484.321L139.305 484.058L139.99 482.712Z" fill="#0C9C91"/>
<path d="M138.684 482.033L137.988 483.379L138.485 483.635L139.181 482.289L138.684 482.033Z" fill="#0C9C91"/>
<path d="M137.382 481.365L137.882 481.619L137.179 482.965L136.68 482.703L137.382 481.365Z" fill="#0C9C91"/>
<path d="M136.078 480.688L136.578 480.951L135.867 482.28L135.367 482.026L136.078 480.688Z" fill="#0C9C91"/>
<path d="M133.014 479.028L133.505 479.308L132.769 480.637L132.286 480.358L133.014 479.028Z" fill="#0C9C91"/>
<path d="M129.279 476.885L128.524 478.199L129.009 478.478L129.764 477.163L129.279 476.885Z" fill="#0C9C91"/>
<path d="M123.523 473.482C124.75 474.329 126.063 474.981 127.324 475.726L126.554 477.03C125.284 476.285 123.972 475.591 122.735 474.778L123.523 473.482Z" fill="#0C9C91"/>
<path d="M118.671 470.435L121.491 472.221L120.686 473.508L117.858 471.713L118.671 470.435Z" fill="#0C9C91"/>
<path d="M115.462 468.402L117.24 469.528L116.419 470.798L114.624 469.655L115.462 468.402Z" fill="#0C9C91"/>
<path d="M112.608 466.43L113.48 467.031L112.634 468.284L111.762 467.683L112.608 466.43Z" fill="#0C9C91"/>
<path d="M110.308 463.901L109.444 465.144L110.312 465.747L111.176 464.504L110.308 463.901Z" fill="#0C9C91"/>
<path d="M109.12 463.991L109.696 464.398L108.824 465.634L108.248 465.227L109.12 463.991Z" fill="#0C9C91"/>
<path d="M107.401 462.797L107.977 463.195L107.096 464.422L106.521 464.025L107.401 462.797Z" fill="#0C9C91"/>
<path d="M105.692 461.578C105.87 461.722 106.065 461.858 106.251 461.993L105.404 463.212C105.209 463.085 105.023 462.941 104.837 462.797L105.692 461.578Z" fill="#0C9C91"/>
<path d="M104.023 460.3L104.573 460.723L103.676 461.942L103.117 461.519L104.023 460.3Z" fill="#0C9C91"/>
<path d="M102.355 459.03L102.905 459.454L101.999 460.664L101.44 460.233L102.355 459.03Z" fill="#0C9C91"/>
<path d="M100.688 457.751L101.238 458.174L100.323 459.377L99.7646 458.953L100.688 457.751Z" fill="#0C9C91"/>
<path d="M97.6309 455.414L97.9103 455.626L96.962 456.811L96.6826 456.591L97.6309 455.414Z" fill="#0C9C91"/>
<path d="M95.3454 453.535L95.6164 453.764L94.6596 454.941L94.3887 454.712L95.3454 453.535Z" fill="#0C9C91"/>
<path d="M93.1068 451.608L92.1338 452.77L92.3999 452.992L93.3729 451.83L93.1068 451.608Z" fill="#0C9C91"/>
<path d="M90.8152 449.75L91.0861 449.97L90.1039 451.122L89.833 450.893L90.8152 449.75Z" fill="#0C9C91"/>
<path d="M88.5463 447.854L88.8172 448.074L87.8181 449.217L87.5557 448.988L88.5463 447.854Z" fill="#0C9C91"/>
<path d="M461.374 406.595C462.593 404.961 463.745 403.276 464.939 401.616L466.175 402.463C464.981 404.156 463.821 405.85 462.593 407.458L461.374 406.595Z" fill="#0C9C91"/>
<path d="M459.021 409.711C459.647 408.906 460.248 408.085 460.849 407.264L462.069 408.161C461.459 409.008 460.858 409.812 460.231 410.625L459.021 409.711Z" fill="#0C9C91"/>
<path d="M458.369 410.591L457.741 411.412L458.945 412.333L459.573 411.512L458.369 410.591Z" fill="#0C9C91"/>
<path d="M456.548 412.928L456.87 412.521L458.063 413.453L457.742 413.859L456.548 412.928Z" fill="#0C9C91"/>
<path d="M456.027 413.554L455.706 413.959L456.894 414.9L457.215 414.495L456.027 413.554Z" fill="#0C9C91"/>
<path d="M454.872 415.044L455.194 414.638L456.371 415.586L456.049 415.992L454.872 415.044Z" fill="#0C9C91"/>
<path d="M454.346 415.671L454.021 416.073L455.201 417.025L455.525 416.623L454.346 415.671Z" fill="#0C9C91"/>
<path d="M451.993 418.583L452.315 418.186L453.483 419.151L453.153 419.549L451.993 418.583Z" fill="#0C9C91"/>
<path d="M449.766 421.282L449.431 421.675L450.584 422.657L450.919 422.264L449.766 421.282Z" fill="#0C9C91"/>
<path d="M445.381 426.246L448.073 423.198L449.216 424.189L446.507 427.254L445.381 426.246Z" fill="#0C9C91"/>
<path d="M441.799 430.141C442.502 429.404 443.187 428.642 443.882 427.889L444.999 428.913C444.305 429.667 443.611 430.437 442.9 431.182L441.799 430.141Z" fill="#0C9C91"/>
<path d="M439.386 432.689L440.724 431.275L441.824 432.317L440.478 433.739L439.386 432.689Z" fill="#0C9C91"/>
<path d="M437.834 434.238L437.152 434.934L438.235 435.994L438.916 435.298L437.834 434.238Z" fill="#0C9C91"/>
<path d="M435.534 436.601L436.22 435.915L437.295 436.99L436.601 437.676L435.534 436.601Z" fill="#0C9C91"/>
<path d="M434.834 437.282L434.376 437.733L435.44 438.813L435.898 438.361L434.834 437.282Z" fill="#0C9C91"/>
<path d="M432.994 439.099L433.46 438.65L434.51 439.734L434.053 440.183L432.994 439.099Z" fill="#0C9C91"/>
<path d="M432.057 439.958L431.591 440.401L432.636 441.499L433.102 441.055L432.057 439.958Z" fill="#0C9C91"/>
<path d="M430.199 441.766L430.656 441.326L431.698 442.427L431.232 442.867L430.199 441.766Z" fill="#0C9C91"/>
<path d="M428.776 443.078L429.251 442.646L430.275 443.756L429.801 444.196L428.776 443.078Z" fill="#0C9C91"/>
<path d="M427.354 444.39L427.829 443.958L428.845 445.076L428.371 445.507L427.354 444.39Z" fill="#0C9C91"/>
<path d="M424.947 446.596L424.706 446.81L425.712 447.943L425.953 447.729L424.947 446.596Z" fill="#0C9C91"/>
<path d="M422.664 448.557L422.91 448.354L423.9 449.488L423.655 449.7L422.664 448.557Z" fill="#0C9C91"/>
<path d="M420.598 450.325L420.843 450.122L421.825 451.274L421.58 451.485L420.598 450.325Z" fill="#0C9C91"/>
<path d="M418.507 452.078L418.761 451.875L419.726 453.035L419.481 453.247L418.507 452.078Z" fill="#0C9C91"/>
<path d="M416.416 453.815L416.662 453.611L417.618 454.78L417.364 454.991L416.416 453.815Z" fill="#0C9C91"/>
<path d="M472.033 263.04L472.203 256.207H473.718L473.54 263.091L472.033 263.04Z" fill="#0C9C91"/>
<path d="M471.915 267.434L472.008 264.021L473.524 264.072L473.431 267.51L471.915 267.434Z" fill="#0C9C91"/>
<path d="M471.737 269.78L471.822 268.637L473.338 268.721L473.244 269.873L471.737 269.78Z" fill="#0C9C91"/>
<path d="M471.576 271.947L471.619 271.38L473.126 271.482L473.083 272.057L471.576 271.947Z" fill="#0C9C91"/>
<path d="M471.473 272.863L471.43 273.438L472.941 273.552L472.984 272.978L471.473 272.863Z" fill="#0C9C91"/>
<path d="M471.349 274.961L471.391 274.394L472.898 274.521L472.856 275.096L471.349 274.961Z" fill="#0C9C91"/>
<path d="M471.229 276.469L471.272 275.901L472.779 276.037L472.737 276.613L471.229 276.469Z" fill="#0C9C91"/>
<path d="M470.865 280.042L470.941 279.466L472.449 279.635L472.372 280.202L470.865 280.042Z" fill="#0C9C91"/>
<path d="M470.405 283.892L470.332 284.463L471.836 284.654L471.908 284.083L470.405 283.892Z" fill="#0C9C91"/>
<path d="M469.342 291.234L469.731 288.999L470.019 286.747L471.518 286.959L471.23 289.228L470.832 291.48L469.342 291.234Z" fill="#0C9C91"/>
<path d="M468.3 297.06L468.901 293.682L470.391 293.944L469.781 297.348L468.3 297.06Z" fill="#0C9C91"/>
<path d="M467.555 300.904L467.8 299.845L467.995 298.778L469.477 299.075L469.282 300.15L469.036 301.217L467.555 300.904Z" fill="#0C9C91"/>
<path d="M466.75 304.375L466.996 303.316L468.469 303.647L468.223 304.713L466.75 304.375Z" fill="#0C9C91"/>
<path d="M466.175 306.881L466.42 305.822L467.894 306.169L467.648 307.236L466.175 306.881Z" fill="#0C9C91"/>
<path d="M465.769 308.642L465.929 307.947L467.394 308.311L467.233 309.014L465.769 308.642Z" fill="#0C9C91"/>
<path d="M465.252 310.75C465.32 310.513 465.396 310.284 465.438 310.056L466.903 310.428C466.853 310.665 466.791 310.9 466.717 311.131L465.252 310.75Z" fill="#0C9C91"/>
<path d="M464.659 312.824L464.862 312.139L466.319 312.528L466.124 313.222L464.659 312.824Z" fill="#0C9C91"/>
<path d="M464.075 314.908L464.27 314.214L465.726 314.62L465.532 315.315L464.075 314.908Z" fill="#0C9C91"/>
<path d="M463.482 316.982L463.677 316.296L465.133 316.711L464.939 317.414L463.482 316.982Z" fill="#0C9C91"/>
<path d="M462.89 319.065L463.084 318.371L464.541 318.811L464.337 319.506L462.89 319.065Z" fill="#0C9C91"/>
<path d="M461.688 322.842L461.806 322.503L463.245 322.969L463.135 323.307L461.688 322.842Z" fill="#0C9C91"/>
<path d="M460.856 325.41L460.739 325.755L462.175 326.241L462.292 325.896L460.856 325.41Z" fill="#0C9C91"/>
<path d="M459.74 328.606L459.859 328.268L461.281 328.767L461.171 329.114L459.74 328.606Z" fill="#0C9C91"/>
<path d="M458.724 331.468L458.851 331.138L460.273 331.663L460.138 331.993L458.724 331.468Z" fill="#0C9C91"/>
<path d="M457.606 334.297L457.733 333.967L459.147 334.509L459.012 334.847L457.606 334.297Z" fill="#0C9C91"/>
<path d="M455.084 340.655C455.931 338.547 456.777 336.421 457.624 334.305L459.03 334.847C458.183 336.98 457.336 339.122 456.49 341.247L455.084 340.655Z" fill="#0C9C91"/>
<path d="M453.271 344.66L454.677 341.544L456.066 342.145L454.652 345.278L453.271 344.66Z" fill="#0C9C91"/>
<path d="M452.307 346.802L452.772 345.752L454.152 346.378L453.678 347.437L452.307 346.802Z" fill="#0C9C91"/>
<path d="M451.409 348.784L451.646 348.259L453.009 348.911L452.772 349.436L451.409 348.784Z" fill="#0C9C91"/>
<path d="M450.774 350.155C450.868 349.986 450.944 349.816 451.02 349.639L452.383 350.291C452.307 350.468 452.222 350.646 452.138 350.816L450.774 350.155Z" fill="#0C9C91"/>
<path d="M450.079 351.501L450.342 350.993L451.705 351.654L451.442 352.17L450.079 351.501Z" fill="#0C9C91"/>
<path d="M449.394 352.847L449.656 352.339L451.011 353.008L450.748 353.524L449.394 352.847Z" fill="#0C9C91"/>
<path d="M447.76 356.039L448.022 355.531L449.368 356.226L449.097 356.742L447.76 356.039Z" fill="#0C9C91"/>
<path d="M445.702 359.967L445.99 359.468L447.319 360.196L447.031 360.695L445.702 359.967Z" fill="#0C9C91"/>
<path d="M442.281 365.92L444.542 361.983L445.863 362.728L443.577 366.691L442.281 365.92Z" fill="#0C9C91"/>
<path d="M439.2 370.975C439.81 370.01 440.445 369.053 441.038 368.079L442.333 368.858C441.732 369.84 441.097 370.805 440.479 371.779L439.2 370.975Z" fill="#0C9C91"/>
<path d="M437.083 374.268L438.26 372.439L439.53 373.252L438.353 375.098L437.083 374.268Z" fill="#0C9C91"/>
<path d="M435.194 377.265C435.406 376.969 435.592 376.656 435.787 376.359L437.049 377.206C436.845 377.511 436.659 377.824 436.447 378.12L435.194 377.265Z" fill="#0C9C91"/>
<path d="M433.662 379.357L434.289 378.477L435.533 379.332L434.907 380.221L433.662 379.357Z" fill="#0C9C91"/>
<path d="M432.612 380.829L433.027 380.245L434.263 381.117L433.848 381.71L432.612 380.829Z" fill="#0C9C91"/>
<path d="M431.359 382.6L431.774 382.007L433.01 382.896L432.587 383.48L431.359 382.6Z" fill="#0C9C91"/>
<path d="M430.106 384.362L430.521 383.777L431.749 384.666L431.326 385.259L430.106 384.362Z" fill="#0C9C91"/>
<path d="M428.828 386.096L429.268 385.537L430.479 386.443L430.039 387.01L428.828 386.096Z" fill="#0C9C91"/>
<path d="M427.49 387.798L427.939 387.23L429.141 388.153L428.693 388.721L427.49 387.798Z" fill="#0C9C91"/>
<path d="M426.591 388.891L426.146 389.457L427.338 390.393L427.783 389.828L426.591 388.891Z" fill="#0C9C91"/>
<path d="M423.705 392.615L423.925 392.336L425.102 393.284L424.882 393.572L423.705 392.615Z" fill="#0C9C91"/>
<path d="M421.766 394.961L422.003 394.69L423.163 395.656L422.926 395.927L421.766 394.961Z" fill="#0C9C91"/>
<path d="M419.776 397.256L420.005 396.985L421.156 397.976L420.919 398.247L419.776 397.256Z" fill="#0C9C91"/>
<path d="M417.787 399.559L418.016 399.288L419.15 400.287L418.913 400.558L417.787 399.559Z" fill="#0C9C91"/>
<path d="M415.78 401.845L416.026 401.582L417.143 402.598L416.898 402.861L415.78 401.845Z" fill="#0C9C91"/>
<path d="M411.056 406.798L415.772 401.845L416.889 402.869L412.139 407.848L411.056 406.798Z" fill="#0C9C91"/>
<path d="M407.982 409.931C408.829 409.16 409.6 408.322 410.387 407.501L411.462 408.559C410.675 409.406 409.896 410.253 409.049 411.006L407.982 409.931Z" fill="#0C9C91"/>
<path d="M406.28 411.556L407.11 410.76L408.168 411.844L407.339 412.639L406.28 411.556Z" fill="#0C9C91"/>
<path d="M405.12 412.652L404.703 413.05L405.749 414.147L406.166 413.749L405.12 412.652Z" fill="#0C9C91"/>
<path d="M403.613 414.096L404.028 413.707L405.07 414.808L404.646 415.206L403.613 414.096Z" fill="#0C9C91"/>
<path d="M402.521 415.146L402.936 414.748L403.961 415.857L403.546 416.255L402.521 415.146Z" fill="#0C9C91"/>
<path d="M401.429 416.188L401.844 415.79L402.86 416.908L402.445 417.306L401.429 416.188Z" fill="#0C9C91"/>
<path d="M398.72 418.541L399.152 418.16L400.151 419.295L399.719 419.676L398.72 418.541Z" fill="#0C9C91"/>
<path d="M395.358 421.445L395.799 421.064L396.772 422.216L396.341 422.597L395.358 421.445Z" fill="#0C9C91"/>
<path d="M390.041 425.772L393.606 422.961L394.571 424.129L390.972 426.957L390.041 425.772Z" fill="#0C9C91"/>
<path d="M385.385 429.43L388.086 427.313L389.009 428.507L386.291 430.641L385.385 429.43Z" fill="#0C9C91"/>
<path d="M382.192 431.698L383.962 430.445L384.859 431.665L383.073 432.926L382.192 431.698Z" fill="#0C9C91"/>
<path d="M379.288 433.765L380.169 433.139L381.041 434.375L380.152 435.01L379.288 433.765Z" fill="#0C9C91"/>
<path d="M377.188 435.254L378.078 434.628L378.933 435.873L378.044 436.508L377.188 435.254Z" fill="#0C9C91"/>
<path d="M375.682 436.245L376.283 435.864L377.129 437.117L376.52 437.507L375.682 436.245Z" fill="#0C9C91"/>
<path d="M373.86 437.414L374.461 437.024L375.291 438.294L374.682 438.684L373.86 437.414Z" fill="#0C9C91"/>
<path d="M372.078 437.272L371.474 437.66L372.292 438.933L372.897 438.545L372.078 437.272Z" fill="#0C9C91"/>
<path d="M370.22 439.751L370.821 439.361L371.625 440.64L371.016 441.029L370.22 439.751Z" fill="#0C9C91"/>
<path d="M368.4 440.91L369.002 440.529L369.797 441.816L369.188 442.206L368.4 440.91Z" fill="#0C9C91"/>
<path d="M366.529 442.003L367.156 441.647L367.935 442.943L367.308 443.307L366.529 442.003Z" fill="#0C9C91"/>
<path d="M363.411 443.788L363.096 443.97L363.851 445.284L364.167 445.102L363.411 443.788Z" fill="#0C9C91"/>
<path d="M360.459 445.5L360.772 445.322L361.509 446.643L361.196 446.821L360.459 445.5Z" fill="#0C9C91"/>
<path d="M357.791 446.956L358.113 446.787L358.824 448.125L358.502 448.286L357.791 446.956Z" fill="#0C9C91"/>
<path d="M355.082 448.336L355.404 448.175L356.098 449.521L355.776 449.682L355.082 448.336Z" fill="#0C9C91"/>
<path d="M352.372 449.724L352.694 449.563L353.371 450.918L353.049 451.079L352.372 449.724Z" fill="#0C9C91"/>
<path d="M346.209 452.671L349.316 451.266C350.358 450.791 351.357 450.241 352.373 449.725L353.05 451.079C352.026 451.596 351.018 452.146 349.977 452.629L346.836 454.051L346.209 452.671Z" fill="#0C9C91"/>
<path d="M342.203 454.483L345.319 453.077L345.937 454.457L342.804 455.871L342.203 454.483Z" fill="#0C9C91"/>
<path d="M340.053 455.448C340.408 455.304 340.755 455.135 341.103 454.982L341.704 456.371L340.645 456.845L340.053 455.448Z" fill="#0C9C91"/>
<path d="M338.029 456.245L338.563 456.033L339.147 457.43L338.605 457.65L338.029 456.245Z" fill="#0C9C91"/>
<path d="M336.624 456.803L337.157 456.592L337.725 457.997L337.191 458.209L336.624 456.803Z" fill="#0C9C91"/>
<path d="M335.758 457.124L335.223 457.335L335.778 458.745L336.314 458.534L335.758 457.124Z" fill="#0C9C91"/>
<path d="M333.812 457.912L334.346 457.7L334.896 459.106L334.354 459.317L333.812 457.912Z" fill="#0C9C91"/>
<path d="M330.478 459.224L331.011 459.013L331.536 460.435L331.002 460.647L330.478 459.224Z" fill="#0C9C91"/>
<path d="M326.277 460.655L326.819 460.469L327.31 461.9L326.768 462.086L326.277 460.655Z" fill="#0C9C91"/>
<path d="M319.767 462.831C321.214 462.399 322.637 461.875 324.076 461.4L324.55 462.831C323.103 463.314 321.672 463.839 320.207 464.271L319.767 462.831Z" fill="#0C9C91"/>
<path d="M314.068 464.44L317.37 463.509L317.802 464.957L314.475 465.905L314.068 464.44Z" fill="#0C9C91"/>
<path d="M310.309 465.516L312.391 464.923L312.789 466.379L310.681 466.98L310.309 465.516Z" fill="#0C9C91"/>
<path d="M306.838 466.329L307.896 466.083L308.252 467.556L307.185 467.802L306.838 466.329Z" fill="#0C9C91"/>
<path d="M304.332 466.904L305.39 466.667L305.729 468.132L304.662 468.386L304.332 466.904Z" fill="#0C9C91"/>
<path d="M302.57 467.31L303.265 467.149L303.595 468.631L302.892 468.792L302.57 467.31Z" fill="#0C9C91"/>
<path d="M300.462 467.801L301.156 467.641L301.469 469.122L300.767 469.283L300.462 467.801Z" fill="#0C9C91"/>
<path d="M298.337 468.225L299.048 468.098L299.344 469.579L298.633 469.706L298.337 468.225Z" fill="#0C9C91"/>
<path d="M296.212 468.605L296.923 468.479L297.203 469.96L296.491 470.087L296.212 468.605Z" fill="#0C9C91"/>
<path d="M294.813 468.837L294.104 468.964L294.371 470.456L295.08 470.329L294.813 468.837Z" fill="#0C9C91"/>
<path d="M291.953 469.359L292.664 469.24L292.918 470.73L292.207 470.857L291.953 469.359Z" fill="#0C9C91"/>
<path d="M288.041 470.02L288.405 469.969L288.625 471.467L288.27 471.51L288.041 470.02Z" fill="#0C9C91"/>
<path d="M285.027 470.401L285.383 470.351L285.586 471.858L285.231 471.9L285.027 470.401Z" fill="#0C9C91"/>
<path d="M282.013 470.782L282.368 470.739L282.546 472.238L282.191 472.289L282.013 470.782Z" fill="#0C9C91"/>
<path d="M278.99 471.162L279.354 471.12L279.515 472.627L279.151 472.67L278.99 471.162Z" fill="#0C9C91"/>
<path d="M275.968 471.442L276.323 471.417L276.467 472.924L276.103 472.949L275.968 471.442Z" fill="#0C9C91"/>
<path d="M269.144 471.958L275.959 471.441L276.103 472.948L269.237 473.473L269.144 471.958Z" fill="#0C9C91"/>
<path d="M264.758 472.17C265.892 472.127 267.035 472.17 268.145 472.034L268.229 473.541C267.086 473.66 265.935 473.643 264.792 473.685L264.758 472.17Z" fill="#0C9C91"/>
<path d="M262.403 472.23L263.555 472.204L263.606 473.711L262.454 473.745L262.403 472.23Z" fill="#0C9C91"/>
<path d="M260.228 472.288L260.803 472.271L260.837 473.787L260.261 473.796L260.228 472.288Z" fill="#0C9C91"/>
<path d="M258.721 472.323L259.296 472.314L259.313 473.822L258.738 473.838L258.721 472.323Z" fill="#0C9C91"/>
<path d="M257.205 472.365L257.781 472.348L257.798 473.863L257.214 473.88L257.205 472.365Z" fill="#0C9C91"/>
<path d="M255.698 472.382C255.893 472.382 256.079 472.382 256.274 472.382V473.889H255.698V472.382Z" fill="#0C9C91"/>
<path d="M252.108 472.298L252.684 472.306L252.667 473.822L252.083 473.805L252.108 472.298Z" fill="#0C9C91"/>
<path d="M247.672 472.179L248.248 472.196L248.197 473.711L247.621 473.694L247.672 472.179Z" fill="#0C9C91"/>
<path d="M240.821 471.789C242.328 471.891 243.836 472.035 245.351 472.102L245.275 473.618C243.751 473.55 242.235 473.398 240.72 473.296L240.821 471.789Z" fill="#0C9C91"/>
<path d="M234.92 471.357L238.341 471.611L238.222 473.119L234.776 472.856L234.92 471.357Z" fill="#0C9C91"/>
<path d="M231.034 470.908L233.185 471.188L233.032 472.686L230.856 472.415L231.034 470.908Z" fill="#0C9C91"/>
<path d="M227.496 470.46L228.571 470.595L228.385 472.103L227.301 471.959L227.496 470.46Z" fill="#0C9C91"/>
<path d="M224.947 470.139L226.022 470.274L225.81 471.773L224.727 471.637L224.947 470.139Z" fill="#0C9C91"/>
<path d="M223.151 469.909L223.863 470.002L223.634 471.492L222.923 471.408L223.151 469.909Z" fill="#0C9C91"/>
<path d="M221.017 469.528L221.729 469.655L221.491 471.154L220.78 471.027L221.017 469.528Z" fill="#0C9C91"/>
<path d="M218.892 469.147L219.595 469.274L219.341 470.773L218.63 470.646L218.892 469.147Z" fill="#0C9C91"/>
<path d="M216.768 468.775L217.47 468.902L217.199 470.384L216.488 470.257L216.768 468.775Z" fill="#0C9C91"/>
<path d="M214.635 468.394L215.346 468.521L215.058 470.002L214.347 469.875L214.635 468.394Z" fill="#0C9C91"/>
<path d="M212.509 468.013L213.212 468.14L212.915 469.621L212.204 469.494L212.509 468.013Z" fill="#0C9C91"/>
<path d="M208.648 467.124L208.995 467.2L208.665 468.682L208.31 468.597L208.648 467.124Z" fill="#0C9C91"/>
<path d="M205.685 466.438L206.032 466.523L205.685 467.996L205.329 467.912L205.685 466.438Z" fill="#0C9C91"/>
<path d="M202.713 465.752L203.068 465.837L202.696 467.301L202.349 467.225L202.713 465.752Z" fill="#0C9C91"/>
<path d="M199.784 464.957L200.131 465.059L199.741 466.523L199.386 466.422L199.784 464.957Z" fill="#0C9C91"/>
<path d="M196.852 464.098L196.438 465.556L196.788 465.655L197.202 464.197L196.852 464.098Z" fill="#0C9C91"/>
<path d="M190.3 462.188C190.842 462.365 191.376 462.56 191.917 462.729L193.56 463.195L196.854 464.126L196.439 465.583L193.128 464.643L191.435 464.169C190.885 464.008 190.351 463.813 189.801 463.627L190.3 462.188Z" fill="#0C9C91"/>
<path d="M186.135 460.782L189.369 461.874L188.903 463.314L185.644 462.213L186.135 460.782Z" fill="#0C9C91"/>
<path d="M183.908 460.029L185 460.393L184.5 461.824L183.408 461.452L183.908 460.029Z" fill="#0C9C91"/>
<path d="M181.85 459.326L182.392 459.512L181.876 460.935L181.325 460.749L181.85 459.326Z" fill="#0C9C91"/>
<path d="M180.437 458.784L180.97 458.996L180.446 460.418L179.912 460.198L180.437 458.784Z" fill="#0C9C91"/>
<path d="M179.03 458.233L179.564 458.437L179.03 459.851L178.488 459.639L179.03 458.233Z" fill="#0C9C91"/>
<path d="M177.626 457.675L178.159 457.886L177.617 459.3L177.075 459.089L177.626 457.675Z" fill="#0C9C91"/>
<path d="M174.29 456.362L174.823 456.566L174.256 457.971L173.714 457.759L174.29 456.362Z" fill="#0C9C91"/>
<path d="M170.191 454.652L170.716 454.881L170.123 456.278L169.59 456.041L170.191 454.652Z" fill="#0C9C91"/>
<path d="M163.943 451.815L168.075 453.695L167.457 455.075L163.291 453.187L163.943 451.815Z" fill="#0C9C91"/>
<path d="M158.634 449.2L161.691 450.767L161.03 452.13L157.948 450.555L158.634 449.2Z" fill="#0C9C91"/>
<path d="M155.146 447.422L157.085 448.404L156.391 449.75L154.443 448.751L155.146 447.422Z" fill="#0C9C91"/>
<path d="M152.005 445.745L152.945 446.287L152.217 447.616L151.269 447.066L152.005 445.745Z" fill="#0C9C91"/>
<path d="M149.769 444.467L150.718 445.009L149.973 446.321L149.024 445.779L149.769 444.467Z" fill="#0C9C91"/>
<path d="M148.204 443.561L148.83 443.916L148.077 445.229L147.45 444.873L148.204 443.561Z" fill="#0C9C91"/>
<path d="M146.332 442.485L146.95 442.841L146.188 444.145L145.562 443.789L146.332 442.485Z" fill="#0C9C91"/>
<path d="M144.453 441.41L145.079 441.766L144.3 443.061L143.674 442.697L144.453 441.41Z" fill="#0C9C91"/>
<path d="M142.623 440.268L143.224 440.657L142.437 441.944L141.827 441.555L142.623 440.268Z" fill="#0C9C91"/>
<path d="M140.803 439.099L141.404 439.488L140.6 440.767L139.99 440.377L140.803 439.099Z" fill="#0C9C91"/>
<path d="M138.979 437.958L138.161 439.234L138.767 439.623L139.585 438.347L138.979 437.958Z" fill="#0C9C91"/>
<path d="M135.646 435.788L135.943 435.983L135.105 437.244L134.8 437.05L135.646 435.788Z" fill="#0C9C91"/>
<path d="M133.15 434.053L133.438 434.256L132.582 435.509L132.286 435.297L133.15 434.053Z" fill="#0C9C91"/>
<path d="M130.679 432.265L129.801 433.5L130.098 433.711L130.976 432.476L130.679 432.265Z" fill="#0C9C91"/>
<path d="M128.188 430.53L128.484 430.733L127.586 431.953L127.29 431.749L128.188 430.53Z" fill="#0C9C91"/>
<path d="M125.741 428.718L126.029 428.938L125.114 430.149L124.835 429.929L125.741 428.718Z" fill="#0C9C91"/>
<path d="M120.364 424.494L125.741 428.719L124.826 429.921L119.416 425.671L120.364 424.494Z" fill="#0C9C91"/>
<path d="M116.969 421.699L118.264 422.825C118.696 423.198 119.111 423.528 119.602 423.892L118.645 425.061C118.196 424.705 117.731 424.366 117.299 423.985L115.995 422.859L116.969 421.699Z" fill="#0C9C91"/>
<path d="M115.2 420.167L116.063 420.921L115.09 422.072L114.209 421.31L115.2 420.167Z" fill="#0C9C91"/>
<path d="M113.549 418.735L113.989 419.116L112.99 420.251L112.559 419.878L113.549 418.735Z" fill="#0C9C91"/>
<path d="M112.405 417.745L112.846 418.126L111.838 419.261L111.406 418.88L112.405 417.745Z" fill="#0C9C91"/>
<path d="M111.262 416.755L111.703 417.136L110.687 418.262L110.255 417.881L111.262 416.755Z" fill="#0C9C91"/>
<path d="M110.145 415.747L110.559 416.137L109.543 417.263L109.12 416.865L110.145 415.747Z" fill="#0C9C91"/>
<path d="M107.554 413.267L107.969 413.665L106.928 414.765L106.513 414.367L107.554 413.267Z" fill="#0C9C91"/>
<path d="M104.337 410.21L104.752 410.608L103.693 411.683L103.278 411.285L104.337 410.21Z" fill="#0C9C91"/>
<path d="M99.5444 405.29L102.677 408.584L101.602 409.65L98.4521 406.34L99.5444 405.29Z" fill="#0C9C91"/>
<path d="M95.4894 400.989C95.8534 401.421 96.2514 401.836 96.6493 402.251L97.8347 403.495L96.7255 404.528L95.5317 403.275C95.1338 402.86 94.7358 402.429 94.3633 401.997L95.4894 400.989Z" fill="#0C9C91"/>
<path d="M92.9233 398.025L94.3457 399.668L93.2112 400.676L91.7803 399.016L92.9233 398.025Z" fill="#0C9C91"/>
<path d="M90.5945 395.334L91.2973 396.155L90.1458 397.129L89.4346 396.308L90.5945 395.334Z" fill="#0C9C91"/>
<path d="M88.9015 393.378C89.1182 393.672 89.3499 393.955 89.5958 394.225L88.4274 395.19C88.1903 394.919 87.9447 394.639 87.7246 394.343L88.9015 393.378Z" fill="#0C9C91"/>
<path d="M87.8009 391.955L88.2497 392.514L87.0728 393.471L86.624 392.903L87.8009 391.955Z" fill="#0C9C91"/>
<path d="M86.4725 390.254L86.9127 390.821L85.7274 391.761L85.2871 391.194L86.4725 390.254Z" fill="#0C9C91"/>
<path d="M85.1333 388.552L85.5736 389.119L84.3882 390.05L83.9395 389.483L85.1333 388.552Z" fill="#0C9C91"/>
<path d="M83.796 386.851L84.2448 387.418L83.0425 388.341L82.5938 387.765L83.796 386.851Z" fill="#0C9C91"/>
<path d="M82.4839 385.14C82.6193 385.334 82.7548 385.529 82.9072 385.715L81.6965 386.621C81.544 386.435 81.4086 386.232 81.2646 386.037L82.4839 385.14Z" fill="#0C9C91"/>
<path d="M81.2306 383.379L81.6455 383.963L80.4263 384.852L80.0029 384.268L81.2306 383.379Z" fill="#0C9C91"/>
<path d="M78.9276 380.145L79.1392 380.441L77.9031 381.304L77.6914 381.017L78.9276 380.145Z" fill="#0C9C91"/>
<path d="M77.1671 377.663L77.3788 377.959L76.1257 378.815L75.9141 378.518L77.1671 377.663Z" fill="#0C9C91"/>
<path d="M75.4989 375.123L75.6936 375.428L74.432 376.266L74.2373 375.961L75.4989 375.123Z" fill="#0C9C91"/>
<path d="M73.8599 372.562L72.584 373.38L72.7805 373.686L74.0564 372.869L73.8599 372.562Z" fill="#0C9C91"/>
<path d="M72.2127 370.001L72.4075 370.306L71.1205 371.102L70.9258 370.805L72.2127 370.001Z" fill="#0C9C91"/>
<path d="M68.7251 364.125L70.4185 367.088C70.7063 367.579 70.9688 368.079 71.2651 368.562L72.188 370.001L70.9011 370.797L69.9951 369.341C69.6903 368.858 69.4194 368.35 69.1484 367.859L67.4551 364.87L68.7251 364.125Z" fill="#0C9C91"/>
<path d="M66.5324 360.314L68.2342 363.278L66.9219 364.031L65.2031 361.043L66.5324 360.314Z" fill="#0C9C91"/>
<path d="M65.4055 358.249L65.9304 359.274L64.6011 359.993L64.0762 358.969L65.4055 358.249Z" fill="#0C9C91"/>
<path d="M64.4159 356.311L64.6784 356.827L63.3406 357.53L63.0781 357.013L64.4159 356.311Z" fill="#0C9C91"/>
<path d="M63.729 354.964L63.9915 355.48L62.6453 356.175L62.3828 355.658L63.729 354.964Z" fill="#0C9C91"/>
<path d="M63.0357 353.626L63.2982 354.134L61.9519 354.82L61.6895 354.303L63.0357 353.626Z" fill="#0C9C91"/>
<path d="M62.3498 352.28L62.6123 352.788L61.2576 353.466L60.9951 352.949L62.3498 352.28Z" fill="#0C9C91"/>
<path d="M60.7574 349.062L60.9944 349.587L59.6228 350.239L59.3857 349.714L60.7574 349.062Z" fill="#0C9C91"/>
<path d="M58.9474 345.003L57.5664 345.627L57.8036 346.152L59.1846 345.527L58.9474 345.003Z" fill="#0C9C91"/>
<path d="M56.1773 338.733C56.7022 340.156 57.3457 341.527 57.9723 342.908L56.5837 343.509C55.9572 342.12 55.3137 340.74 54.7803 339.275L56.1773 338.733Z" fill="#0C9C91"/>
<path d="M54.0097 333.229L55.2628 336.421L53.8573 336.98L52.5957 333.771L54.0097 333.229Z" fill="#0C9C91"/>
<path d="M52.6207 329.563L52.9678 330.596L53.3657 331.604L51.9518 332.137L51.5454 331.113L51.1982 330.08L52.6207 329.563Z" fill="#0C9C91"/>
<path d="M51.4787 326.193L51.8259 327.218L50.395 327.717L50.0479 326.676L51.4787 326.193Z" fill="#0C9C91"/>
<path d="M50.6487 323.755L50.9958 324.779L49.5649 325.262L49.2178 324.229L50.6487 323.755Z" fill="#0C9C91"/>
<path d="M50.0731 322.045L50.3018 322.722L48.8624 323.188L48.6338 322.502L50.0731 322.045Z" fill="#0C9C91"/>
<path d="M49.4039 319.987C49.4716 320.216 49.5224 320.445 49.6071 320.673L48.1677 321.122C48.0831 320.893 48.0238 320.665 47.9561 320.428L49.4039 319.987Z" fill="#0C9C91"/>
<path d="M48.8121 317.904L49.0068 318.599L47.559 319.03L47.3643 318.336L48.8121 317.904Z" fill="#0C9C91"/>
<path d="M48.2183 315.831L48.4215 316.517L46.9652 316.94L46.7705 316.246L48.2183 315.831Z" fill="#0C9C91"/>
<path d="M47.6347 313.747L47.8294 314.433L46.3731 314.839L46.1699 314.145L47.6347 313.747Z" fill="#0C9C91"/>
<path d="M47.0419 311.664L47.2366 312.358L45.7719 312.748L45.5771 312.054L47.0419 311.664Z" fill="#0C9C91"/>
<path d="M46.0771 307.82L46.1617 308.167L44.6885 308.532L44.6123 308.184L46.0771 307.82Z" fill="#0C9C91"/>
<path d="M45.4123 304.856L43.9355 305.196L44.0174 305.551L45.4942 305.21L45.4123 304.856Z" fill="#0C9C91"/>
<path d="M44.7131 301.894L44.7893 302.241L43.3161 302.562L43.2314 302.215L44.7131 301.894Z" fill="#0C9C91"/>
<path d="M44.0696 298.922L44.1289 299.277L42.6472 299.574L42.5879 299.218L44.0696 298.922Z" fill="#0C9C91"/>
<path d="M43.5361 295.925L43.5953 296.28L42.1052 296.56L42.0459 296.204L43.5361 295.925Z" fill="#0C9C91"/>
<path d="M42.3346 289.193L43.5369 295.924L42.0467 296.204L40.8359 289.422L42.3346 289.193Z" fill="#0C9C91"/>
<path d="M41.776 284.833L42.2078 288.228L40.7092 288.448L40.2773 285.036L41.776 284.833Z" fill="#0C9C91"/>
<path d="M41.4788 282.505L41.6227 283.648L40.1241 283.834L39.9717 282.683L41.4788 282.505Z" fill="#0C9C91"/>
<path d="M41.1988 280.346L41.275 280.913L39.7679 281.082L39.7002 280.515L41.1988 280.346Z" fill="#0C9C91"/>
<path d="M41.013 278.847L41.0807 279.414L39.5821 279.575L39.5059 278.999L41.013 278.847Z" fill="#0C9C91"/>
<path d="M40.8694 277.34L40.9117 277.916L39.4131 278.06L39.3623 277.484L40.8694 277.34Z" fill="#0C9C91"/>
<path d="M40.76 275.833L40.8024 276.409L39.2953 276.544L39.2529 275.968L40.76 275.833Z" fill="#0C9C91"/>
<path d="M40.4751 272.257L38.9639 272.372L39.0074 272.946L40.5186 272.831L40.4751 272.257Z" fill="#0C9C91"/>
<path d="M40.1493 267.832L40.1917 268.408L38.6846 268.492L38.6338 267.908L40.1493 267.832Z" fill="#0C9C91"/>
<path d="M39.9465 260.965L40.0651 265.512L38.5495 265.571L38.4395 260.999L39.9465 260.965Z" fill="#0C9C91"/>
<path d="M39.853 255.039C39.8022 256.182 39.853 257.325 39.853 258.468H38.3374C38.3374 257.317 38.2528 256.165 38.3374 255.014L39.853 255.039Z" fill="#0C9C91"/>
<path d="M39.955 251.135L39.9042 253.311L38.3887 253.294L38.4479 251.102L39.955 251.135Z" fill="#0C9C91"/>
<path d="M40.0488 247.579L40.0234 248.663L38.5078 248.612L38.5332 247.512L40.0488 247.579Z" fill="#0C9C91"/>
<path d="M40.1152 245.006L40.0813 246.09L38.5742 246.022L38.5996 244.93L40.1152 245.006Z" fill="#0C9C91"/>
<path d="M40.2519 243.202L40.2011 243.913L38.6855 243.828L38.7448 243.108L40.2519 243.202Z" fill="#0C9C91"/>
<path d="M40.4114 241.043L40.3606 241.763L38.8535 241.661L38.9043 240.941L40.4114 241.043Z" fill="#0C9C91"/>
<path d="M39.081 238.79L39.0264 239.508L40.5375 239.623L40.5921 238.905L39.081 238.79Z" fill="#0C9C91"/>
<path d="M40.7425 236.733L40.6917 237.453L39.1846 237.317L39.2354 236.598L40.7425 236.733Z" fill="#0C9C91"/>
<path d="M40.9111 234.574L40.8518 235.293L39.3447 235.149L39.404 234.43L40.9111 234.574Z" fill="#0C9C91"/>
<path d="M41.1572 232.432L41.0641 233.143L39.5654 232.982L39.6501 232.263L41.1572 232.432Z" fill="#0C9C91"/>
<path d="M40.1554 228.294L40.1094 228.655L41.6128 228.847L41.6588 228.486L40.1554 228.294Z" fill="#0C9C91"/>
<path d="M42.038 225.48L41.9957 225.836L40.4971 225.624L40.5394 225.269L42.038 225.48Z" fill="#0C9C91"/>
<path d="M42.4612 222.467L42.4019 222.822L40.9033 222.594L40.9711 222.229L42.4612 222.467Z" fill="#0C9C91"/>
<path d="M42.9947 219.478L42.9355 219.825L41.4453 219.571L41.5046 219.216L42.9947 219.478Z" fill="#0C9C91"/>
<path d="M43.5364 216.481L43.4687 216.836L41.9785 216.557L42.0462 216.201L43.5364 216.481Z" fill="#0C9C91"/>
<path d="M44.8745 209.775C44.6289 210.884 44.3326 211.993 44.1294 213.111L43.5282 216.498L42.0381 216.227L42.6477 212.84C42.8509 211.705 43.1472 210.596 43.3928 209.453L44.8745 209.775Z" fill="#0C9C91"/>
<path d="M45.8648 205.491L45.1028 208.827L43.6211 208.496L44.4 205.144L45.8648 205.491Z" fill="#0C9C91"/>
<path d="M46.3981 203.205L46.1357 204.322L44.6709 203.967L44.9249 202.832L46.3981 203.205Z" fill="#0C9C91"/>
<path d="M46.9401 201.096L46.7877 201.646L45.3145 201.265L45.4753 200.715L46.9401 201.096Z" fill="#0C9C91"/>
<path d="M47.3545 199.64L47.1936 200.199L45.7373 199.801L45.8897 199.251L47.3545 199.64Z" fill="#0C9C91"/>
<path d="M47.7695 198.192L47.6086 198.742L46.1523 198.335L46.3047 197.785L47.7695 198.192Z" fill="#0C9C91"/>
<path d="M48.1761 196.736L48.0237 197.287L46.5674 196.88L46.7283 196.321L48.1761 196.736Z" fill="#0C9C91"/>
<path d="M49.1585 193.281L49.0061 193.84L47.5498 193.4L47.7107 192.841L49.1585 193.281Z" fill="#0C9C91"/>
<path d="M50.5133 189.056L50.3271 189.607L48.8877 189.141L49.074 188.591L50.5133 189.056Z" fill="#0C9C91"/>
<path d="M52.7143 182.554L51.258 186.855L49.8271 186.372L51.2919 182.037L52.7143 182.554Z" fill="#0C9C91"/>
<path d="M54.8484 177.042L53.5953 180.234L52.1729 179.701L53.4429 176.483L54.8484 177.042Z" fill="#0C9C91"/>
<path d="M56.2873 173.393L55.4914 175.417L54.0859 174.849L54.8903 172.817L56.2873 173.393Z" fill="#0C9C91"/>
<path d="M57.6928 170.124L57.244 171.106L55.8555 170.514L56.3042 169.515L57.6928 170.124Z" fill="#0C9C91"/>
<path d="M58.7517 167.779L58.3029 168.77L56.9229 168.152L57.3716 167.161L58.7517 167.779Z" fill="#0C9C91"/>
<path d="M59.4967 166.129L59.2004 166.78L57.8203 166.154L58.1167 165.502L59.4967 166.129Z" fill="#0C9C91"/>
<path d="M60.3848 164.156L60.0884 164.817L58.7168 164.173L59.0131 163.513L60.3848 164.156Z" fill="#0C9C91"/>
<path d="M61.2917 162.199C61.1816 162.411 61.08 162.623 60.9784 162.843L59.6152 162.191C59.7168 161.971 59.8184 161.751 59.9285 161.539L61.2917 162.199Z" fill="#0C9C91"/>
<path d="M62.2728 160.269L61.951 160.913L60.5879 160.244L60.9181 159.601L62.2728 160.269Z" fill="#0C9C91"/>
<path d="M63.265 158.347L62.9348 158.99L61.5801 158.305L61.9103 157.661L63.265 158.347Z" fill="#0C9C91"/>
<path d="M64.2461 156.425L63.9159 157.06L62.5781 156.366L62.9083 155.723L64.2461 156.425Z" fill="#0C9C91"/>
<path d="M66.0413 152.904L65.8635 153.217L64.5342 152.489L64.712 152.176L66.0413 152.904Z" fill="#0C9C91"/>
<path d="M67.5816 150.261L67.4038 150.574L66.083 149.838L66.2608 149.524L67.5816 150.261Z" fill="#0C9C91"/>
<path d="M69.0976 147.628L68.9198 147.941L67.6074 147.179L67.7937 146.866L69.0976 147.628Z" fill="#0C9C91"/>
<path d="M70.6139 144.995L70.436 145.3L69.1406 144.521L69.3184 144.208L70.6139 144.995Z" fill="#0C9C91"/>
<path d="M72.2131 142.404L72.0184 142.709L70.7314 141.913L70.9262 141.608L72.2131 142.404Z" fill="#0C9C91"/>
<path d="M75.9056 136.647L72.214 142.404L70.9355 141.6L74.644 135.809L75.9056 136.647Z" fill="#0C9C91"/>
<path d="M78.3941 133.023C77.7422 133.963 77.0479 134.86 76.4298 135.825L75.1768 134.979C75.7948 134.013 76.4976 133.099 77.1495 132.159L78.3941 133.023Z" fill="#0C9C91"/>
<path d="M79.7491 131.109L79.0887 132.04L77.8525 131.177L78.5214 130.229L79.7491 131.109Z" fill="#0C9C91"/>
<path d="M81.0185 129.331L80.6798 129.806L79.4521 128.917L79.7908 128.442L81.0185 129.331Z" fill="#0C9C91"/>
<path d="M81.8909 128.105L81.5607 128.57L80.333 127.673L80.6717 127.207L81.8909 128.105Z" fill="#0C9C91"/>
<path d="M82.7626 126.868L82.4324 127.342L81.2217 126.436L81.5519 125.962L82.7626 126.868Z" fill="#0C9C91"/>
<path d="M83.7031 125.683L83.3475 126.132L82.1367 125.226L82.4923 124.769L83.7031 125.683Z" fill="#0C9C91"/>
<path d="M84.7259 121.912L84.3701 122.364L85.5616 123.301L85.9174 122.848L84.7259 121.912Z" fill="#0C9C91"/>
<path d="M88.6559 119.374L88.3003 119.823L87.1318 118.866L87.4874 118.409L88.6559 119.374Z" fill="#0C9C91"/>
<path d="M93.1181 114.159L90.1463 117.588L88.9863 116.615L91.9836 113.16L93.1181 114.159Z" fill="#0C9C91"/>
<path d="M97.0472 109.731C96.6578 110.145 96.2513 110.577 95.8703 110.984L94.7527 112.279L93.6182 111.272L94.7527 109.959C95.1337 109.536 95.5401 109.112 95.9381 108.706L97.0472 109.731Z" fill="#0C9C91"/>
<path d="M99.7478 106.895L98.2576 108.47L97.1484 107.437L98.6555 105.854L99.7478 106.895Z" fill="#0C9C91"/>
<path d="M102.211 104.321L101.466 105.108L100.382 104.05L101.135 103.254L102.211 104.321Z" fill="#0C9C91"/>
<path d="M104.023 102.5L103.244 103.245L102.169 102.178L102.965 101.425L104.023 102.5Z" fill="#0C9C91"/>
<path d="M105.336 101.247L104.819 101.746L103.761 100.663L104.286 100.163L105.336 101.247Z" fill="#0C9C91"/>
<path d="M105.859 98.6665L105.338 99.1631L106.384 100.26L106.905 99.7635L105.859 98.6665Z" fill="#0C9C91"/>
<path d="M108.468 98.2664L107.943 98.7575L106.91 97.6568L107.435 97.1572L108.468 98.2664Z" fill="#0C9C91"/>
<path d="M110.035 96.7768L109.51 97.2679L108.485 96.1587L109.01 95.6592L110.035 96.7768Z" fill="#0C9C91"/>
<path d="M111.635 95.3282L111.093 95.7939L110.077 94.6763L110.627 94.2021L111.635 95.3282Z" fill="#0C9C91"/>
<path d="M113.269 93.9148L112.728 94.3805L111.729 93.246L112.27 92.7803L113.269 93.9148Z" fill="#0C9C91"/>
<path d="M116.267 91.3156L115.996 91.5526L115.014 90.4011L115.293 90.1641L116.267 91.3156Z" fill="#0C9C91"/>
<path d="M118.536 89.3256L118.265 89.5627L117.3 88.3943L117.571 88.1572L118.536 89.3256Z" fill="#0C9C91"/>
<path d="M120.966 87.4454L120.678 87.6741L119.729 86.4887L120.017 86.2686L120.966 87.4454Z" fill="#0C9C91"/>
<path d="M123.353 85.5669L123.074 85.7955L122.143 84.6016L122.422 84.373L123.353 85.5669Z" fill="#0C9C91"/>
<path d="M125.741 83.6867L125.461 83.9153L124.547 82.7045L124.835 82.4844L125.741 83.6867Z" fill="#0C9C91"/>
<path d="M131.287 79.6824L128.501 81.6637C127.578 82.3241 126.63 82.9676 125.749 83.6873L124.835 82.4765C125.724 81.7484 126.672 81.1049 127.604 80.436L130.389 78.4463L131.287 79.6824Z" fill="#0C9C91"/>
<path d="M134.868 77.1339L132.082 79.1152L131.21 77.879L134.021 75.8809L134.868 77.1339Z" fill="#0C9C91"/>
<path d="M136.841 75.8543L135.868 76.4724L135.029 75.2109L136.003 74.5928L136.841 75.8543Z" fill="#0C9C91"/>
<path d="M138.67 74.6782L138.187 74.983L137.357 73.7215L137.848 73.4082L138.67 74.6782Z" fill="#0C9C91"/>
<path d="M139.12 72.5965L138.636 72.9072L139.454 74.1832L139.938 73.8724L139.12 72.5965Z" fill="#0C9C91"/>
<path d="M141.218 73.0441L140.727 73.3574L139.923 72.0789L140.414 71.7656L141.218 73.0441Z" fill="#0C9C91"/>
<path d="M142.488 72.2313L142.006 72.5361L141.201 71.2576L141.692 70.9443L142.488 72.2313Z" fill="#0C9C91"/>
<path d="M145.554 70.3687L145.054 70.6565L144.275 69.3611L144.783 69.0732L145.554 70.3687Z" fill="#0C9C91"/>
<path d="M149.406 68.159L148.907 68.4469L148.153 67.1345L148.653 66.8467L149.406 68.159Z" fill="#0C9C91"/>
<path d="M155.417 64.8573L153.393 65.8902C152.716 66.2289 152.081 66.6353 151.412 66.9994L150.709 65.6786C151.369 65.306 152.021 64.8996 152.699 64.5609L154.739 63.5195L155.417 64.8573Z" fill="#0C9C91"/>
<path d="M160.684 62.1555L157.627 63.7218L156.941 62.3756L160.015 60.8008L160.684 62.1555Z" fill="#0C9C91"/>
<path d="M164.214 60.4618L162.233 61.3593L161.581 59.9961L163.571 59.0986L164.214 60.4618Z" fill="#0C9C91"/>
<path d="M167.465 58.9973L166.474 59.446L165.848 58.0659L166.838 57.6172L167.465 58.9973Z" fill="#0C9C91"/>
<path d="M169.802 57.9393L168.812 58.3796L168.202 56.9995L169.201 56.5508L169.802 57.9393Z" fill="#0C9C91"/>
<path d="M171.452 57.1949L170.8 57.4912L170.199 56.0942L170.86 55.7979L171.452 57.1949Z" fill="#0C9C91"/>
<path d="M173.459 56.3811L172.79 56.6436L172.206 55.2465L172.875 54.9756L173.459 56.3811Z" fill="#0C9C91"/>
<path d="M175.467 55.5862L174.798 55.8486L174.23 54.4431L174.899 54.1807L175.467 55.5862Z" fill="#0C9C91"/>
<path d="M176.921 53.3756L176.252 53.6396L176.808 55.0496L177.477 54.7856L176.921 53.3756Z" fill="#0C9C91"/>
<path d="M179.488 54.0015L178.819 54.264L178.277 52.85L178.955 52.5791L179.488 54.0015Z" fill="#0C9C91"/>
<path d="M181.503 53.2066L180.835 53.4691L180.31 52.0551L180.978 51.7842L181.503 53.2066Z" fill="#0C9C91"/>
<path d="M185.254 51.928L184.916 52.038L184.416 50.6156L184.755 50.4971L185.254 51.928Z" fill="#0C9C91"/>
<path d="M188.133 50.955L187.794 51.0651L187.32 49.6342L187.659 49.5156L188.133 50.955Z" fill="#0C9C91"/>
<path d="M191.012 49.9726L190.673 50.0911L190.216 48.6517L190.563 48.5332L191.012 49.9726Z" fill="#0C9C91"/>
<path d="M193.933 49.108L193.586 49.2096L193.146 47.7618L193.493 47.6602L193.933 49.108Z" fill="#0C9C91"/>
<path d="M196.447 46.8351L196.097 46.9346L196.511 48.3924L196.861 48.2929L196.447 46.8351Z" fill="#0C9C91"/>
<path d="M203.458 46.4843C202.899 46.6198 202.341 46.7298 201.765 46.8738L200.122 47.3479L196.837 48.2792L196.431 46.823L199.758 45.9085L201.409 45.4344C201.968 45.2905 202.527 45.1719 203.103 45.0449L203.458 46.4843Z" fill="#0C9C91"/>
<path d="M207.734 45.4937L204.406 46.2642L204.042 44.791L207.403 44.0205L207.734 45.4937Z" fill="#0C9C91"/>
<path d="M210.028 44.968L208.902 45.222L208.58 43.7488L209.706 43.4863L210.028 44.968Z" fill="#0C9C91"/>
<path d="M212.145 44.4768L211.586 44.6038L211.272 43.1221L211.84 42.9951L212.145 44.4768Z" fill="#0C9C91"/>
<path d="M213.635 44.1975L213.068 44.2991L212.763 42.809L213.338 42.7158L213.635 44.1975Z" fill="#0C9C91"/>
<path d="M215.116 43.927L214.557 44.0286L214.261 42.5469L214.836 42.4453L215.116 43.927Z" fill="#0C9C91"/>
<path d="M216.606 43.664L216.039 43.7656L215.76 42.2754L216.336 42.1738L216.606 43.664Z" fill="#0C9C91"/>
<path d="M220.138 43.0377L219.57 43.1393L219.316 41.6407L219.892 41.5391L220.138 43.0377Z" fill="#0C9C91"/>
<path d="M224.515 42.3258L223.948 42.3935L223.728 40.9033L224.303 40.8271L224.515 42.3258Z" fill="#0C9C91"/>
<path d="M231.331 41.4631L226.826 42.0304L226.623 40.5318L231.161 39.9561L231.331 41.4631Z" fill="#0C9C91"/>
<path d="M237.216 40.8782L233.795 41.1491L233.643 39.642L237.089 39.3711L237.216 40.8782Z" fill="#0C9C91"/>
<path d="M241.118 40.5823L238.959 40.7516L238.832 39.2361L241.016 39.0752L241.118 40.5823Z" fill="#0C9C91"/>
<path d="M244.674 40.3118L243.591 40.3965L243.506 38.8809L244.598 38.8047L244.674 40.3118Z" fill="#0C9C91"/>
<path d="M247.249 40.2356L246.165 40.2695L246.089 38.7539L247.19 38.7285L247.249 40.2356Z" fill="#0C9C91"/>
<path d="M249.052 40.1923L248.341 40.2093L248.281 38.6937L249.009 38.6768L249.052 40.1923Z" fill="#0C9C91"/>
<path d="M251.18 38.6332L250.461 38.6514L250.499 40.1664L251.219 40.1482L251.18 38.6332Z" fill="#0C9C91"/>
<path d="M253.378 40.0829L252.658 40.0999L252.633 38.5843L253.361 38.5674L253.378 40.0829Z" fill="#0C9C91"/>
<path d="M255.538 40.0237L254.818 40.0491L254.81 38.5335L255.538 38.5166V40.0237Z" fill="#0C9C91"/>
<path d="M257.696 40.0569L256.984 40.04V38.5244L257.713 38.5413L257.696 40.0569Z" fill="#0C9C91"/>
<path d="M259.864 40.1165L259.145 40.0911L259.17 38.584L259.89 38.6009L259.864 40.1165Z" fill="#0C9C91"/>
<path d="M263.826 40.2099L263.471 40.2014L263.522 38.6943L263.877 38.7028L263.826 40.2099Z" fill="#0C9C91"/>
<path d="M266.865 40.2861L266.51 40.2776L266.578 38.7705L266.942 38.779L266.865 40.2861Z" fill="#0C9C91"/>
<path d="M269.897 40.5068L269.541 40.4814L269.634 38.9658L269.998 38.9997L269.897 40.5068Z" fill="#0C9C91"/>
<path d="M272.689 39.1988L272.574 40.71L272.937 40.7375L273.052 39.2263L272.689 39.1988Z" fill="#0C9C91"/>
<path d="M275.968 40.9632L275.604 40.9378L275.739 39.4307L276.103 39.4561L275.968 40.9632Z" fill="#0C9C91"/>
<path d="M282.792 41.7255C280.531 41.4545 278.279 41.0905 276.019 40.9719L276.163 39.4648C278.449 39.5834 280.718 39.9475 282.995 40.2184L282.792 41.7255Z" fill="#0C9C91"/>
<path d="M287.119 42.2761L283.732 41.8443L283.927 40.3457L287.339 40.7775L287.119 42.2761Z" fill="#0C9C91"/>
<path d="M289.446 42.5977C289.074 42.5215 288.693 42.4706 288.312 42.4283L288.54 40.9297C288.921 40.972 289.302 41.0313 289.683 41.099L289.446 42.5977Z" fill="#0C9C91"/>
<path d="M291.589 42.9785L291.03 42.8769L291.267 41.3867L291.843 41.4883L291.589 42.9785Z" fill="#0C9C91"/>
<path d="M293.08 43.2412L292.513 43.148L292.767 41.6494L293.334 41.751L293.08 43.2412Z" fill="#0C9C91"/>
<path d="M294.258 41.9123L293.991 43.4043L294.558 43.5055L294.824 42.0135L294.258 41.9123Z" fill="#0C9C91"/>
<path d="M296.059 43.7747L295.492 43.6731L295.763 42.1914L296.339 42.293L296.059 43.7747Z" fill="#0C9C91"/>
<path d="M299.59 44.4095L299.022 44.3079L299.319 42.8262L299.886 42.9278L299.59 44.4095Z" fill="#0C9C91"/>
<path d="M303.908 45.4085L303.35 45.273L303.68 43.7998L304.247 43.9268L303.908 45.4085Z" fill="#0C9C91"/>
<path d="M310.597 46.9746C309.133 46.5851 307.651 46.2803 306.178 45.9247L306.525 44.46C308.007 44.8071 309.505 45.1119 310.978 45.5098L310.597 46.9746Z" fill="#0C9C91"/>
<path d="M316.286 48.5914L312.984 47.6516L313.382 46.1953L316.71 47.1351L316.286 48.5914Z" fill="#0C9C91"/>
<path d="M320.054 49.6671L317.963 49.066L318.395 47.6182L320.503 48.2193L320.054 49.6671Z" fill="#0C9C91"/>
<path d="M323.433 50.7933L322.408 50.4462L322.865 49.0068L323.907 49.354L323.433 50.7933Z" fill="#0C9C91"/>
<path d="M325.871 51.6149L324.838 51.2678L325.321 49.8369L326.353 50.1841L325.871 51.6149Z" fill="#0C9C91"/>
<path d="M327.581 52.1995L326.903 51.9709L327.394 50.54L328.08 50.7686L327.581 52.1995Z" fill="#0C9C91"/>
<path d="M329.63 52.8929L328.953 52.6558L329.461 51.2334L330.147 51.4705L329.63 52.8929Z" fill="#0C9C91"/>
<path d="M331.654 53.6468L330.985 53.3843L331.51 51.9619L332.188 52.2329L331.654 53.6468Z" fill="#0C9C91"/>
<path d="M333.669 54.443L333 54.1806L333.533 52.7666L334.211 53.0291L333.669 54.443Z" fill="#0C9C91"/>
<path d="M335.676 55.238L335.007 54.967L335.566 53.5615L336.235 53.824L335.676 55.238Z" fill="#0C9C91"/>
<path d="M337.69 56.0264L337.021 55.7639L337.589 54.3584L338.258 54.6293L337.69 56.0264Z" fill="#0C9C91"/>
<path d="M341.349 57.541L341.027 57.3886L341.62 56L341.95 56.1524L341.349 57.541Z" fill="#0C9C91"/>
<path d="M344.125 58.7942L343.795 58.6418L344.413 57.2617L344.743 57.4141L344.125 58.7942Z" fill="#0C9C91"/>
<path d="M346.895 60.0475L346.564 59.8951L347.199 58.5234L347.53 58.6758L346.895 60.0475Z" fill="#0C9C91"/>
<path d="M349.663 61.3007L349.341 61.1483L349.993 59.7852L350.323 59.9376L349.663 61.3007Z" fill="#0C9C91"/>
<path d="M352.372 62.6806L352.059 62.5197L352.727 61.165L353.049 61.3259L352.372 62.6806Z" fill="#0C9C91"/>
<path d="M358.46 65.7967L352.381 62.6809L353.058 61.3262L359.18 64.4674L358.46 65.7967Z" fill="#0C9C91"/>
<path d="M362.287 67.9647L359.323 66.2544L360.051 64.9336L363.032 66.6439L362.287 67.9647Z" fill="#0C9C91"/>
<path d="M364.327 69.1322L363.328 68.5565L364.082 67.2441L365.081 67.8284L364.327 69.1322Z" fill="#0C9C91"/>
<path d="M366.216 70.2158L365.717 69.9279L366.487 68.624L366.987 68.9119L366.216 70.2158Z" fill="#0C9C91"/>
<path d="M367.519 70.97L367.028 70.6821L367.799 69.3867L368.307 69.6746L367.519 70.97Z" fill="#0C9C91"/>
<path d="M368.815 71.7575L368.332 71.4526L369.119 70.1572L369.602 70.4705L368.815 71.7575Z" fill="#0C9C91"/>
<path d="M370.085 72.5787L369.603 72.2655L370.398 70.9785L370.889 71.2918L370.085 72.5787Z" fill="#0C9C91"/>
<path d="M373.419 72.9028L372.602 74.1787L373.086 74.4894L373.904 73.2135L373.419 72.9028Z" fill="#0C9C91"/>
<path d="M376.841 76.9052L376.358 76.592L377.197 75.3389L377.688 75.6521L376.841 76.9052Z" fill="#0C9C91"/>
<path d="M382.438 80.8846L378.738 78.2515L379.593 77.0068L383.327 79.6569L382.438 80.8846Z" fill="#0C9C91"/>
<path d="M387.197 84.3981C386.291 83.7038 385.41 82.9672 384.462 82.3237L385.368 81.1045C386.316 81.7564 387.205 82.4931 388.111 83.1958L387.197 84.3981Z" fill="#0C9C91"/>
<path d="M390.269 86.8193L388.567 85.4731L389.49 84.2793L391.209 85.634L390.269 86.8193Z" fill="#0C9C91"/>
<path d="M393.072 89.0206L392.226 88.3517L393.174 87.1748L394.037 87.8522L393.072 89.0206Z" fill="#0C9C91"/>
<path d="M395.036 90.6882L394.215 89.977L395.18 88.8086L396.01 89.5283L395.036 90.6882Z" fill="#0C9C91"/>
<path d="M396.408 91.8662L395.857 91.4005L396.84 90.249L397.39 90.7232L396.408 91.8662Z" fill="#0C9C91"/>
<path d="M398.472 91.6484L397.479 92.7939L398.023 93.2651L399.016 92.1196L398.472 91.6484Z" fill="#0C9C91"/>
<path d="M399.676 94.7024L399.126 94.2283L400.134 93.0938L400.675 93.5679L399.676 94.7024Z" fill="#0C9C91"/>
<path d="M401.31 96.1162L400.76 95.6505L401.776 94.5244L402.326 94.9986L401.31 96.1162Z" fill="#0C9C91"/>
<path d="M402.877 97.6067L402.352 97.1072L403.376 95.998L403.901 96.4976L402.877 97.6067Z" fill="#0C9C91"/>
<path d="M404.443 99.0973L403.918 98.5978L404.959 97.4971L405.476 97.9966L404.443 99.0973Z" fill="#0C9C91"/>
<path d="M407.305 101.831L407.051 101.586L408.109 100.502L408.372 100.756L407.305 101.831Z" fill="#0C9C91"/>
<path d="M409.481 103.957L409.235 103.703L410.311 102.636L410.556 102.898L409.481 103.957Z" fill="#0C9C91"/>
<path d="M411.581 106.167L411.336 105.904L412.42 104.846L412.665 105.108L411.581 106.167Z" fill="#0C9C91"/>
<path d="M413.68 108.368L413.435 108.106L414.535 107.064L414.781 107.327L413.68 108.368Z" fill="#0C9C91"/>
<path d="M415.78 110.569L415.526 110.307L416.644 109.282L416.898 109.545L415.78 110.569Z" fill="#0C9C91"/>
<path d="M420.268 115.726C418.769 114.032 417.296 112.263 415.78 110.569L416.898 109.545C418.43 111.238 419.912 113.008 421.419 114.735L420.268 115.726Z" fill="#0C9C91"/>
<path d="M423.129 119.061C422.418 118.172 421.648 117.325 420.911 116.462L422.063 115.479C422.808 116.326 423.587 117.173 424.298 118.096L423.129 119.061Z" fill="#0C9C91"/>
<path d="M424.586 120.907L423.875 120.001L425.043 119.044L425.763 119.958L424.586 120.907Z" fill="#0C9C91"/>
<path d="M426.755 121.222L425.563 122.159L425.919 122.612L427.111 121.675L426.755 121.222Z" fill="#0C9C91"/>
<path d="M426.863 123.803L426.508 123.354L427.702 122.423L428.057 122.88L426.863 123.803Z" fill="#0C9C91"/>
<path d="M427.795 124.996L427.439 124.548L428.642 123.616L428.997 124.073L427.795 124.996Z" fill="#0C9C91"/>
<path d="M428.727 126.182L428.371 125.733L429.582 124.818L429.937 125.276L428.727 126.182Z" fill="#0C9C91"/>
<path d="M430.843 129.086L430.504 128.612L431.732 127.723L432.062 128.188L430.843 129.086Z" fill="#0C9C91"/>
<path d="M433.408 132.702L433.078 132.236L434.323 131.364L434.653 131.838L433.408 132.702Z" fill="#0C9C91"/>
<path d="M437.243 138.391L436.041 136.503C435.634 135.868 435.194 135.225 434.779 134.615L436.024 133.769C436.481 134.378 436.871 135.022 437.294 135.665L438.53 137.596L437.243 138.391Z" fill="#0C9C91"/>
<path d="M440.444 143.378L438.59 140.483L439.868 139.67L441.731 142.582L440.444 143.378Z" fill="#0C9C91"/>
<path d="M442.426 146.748L441.342 144.86L442.637 144.081L443.729 145.978L442.426 146.748Z" fill="#0C9C91"/>
<path d="M444.203 149.838L443.661 148.898L444.973 148.145L445.524 149.093L444.203 149.838Z" fill="#0C9C91"/>
<path d="M445.49 152.065L444.948 151.125L446.269 150.389L446.811 151.337L445.49 152.065Z" fill="#0C9C91"/>
<path d="M446.362 153.648C446.252 153.437 446.151 153.217 446.032 153.013L447.362 152.285C447.48 152.497 447.582 152.717 447.7 152.929L446.362 153.648Z" fill="#0C9C91"/>
<path d="M447.353 155.571L447.022 154.936L448.36 154.225L448.69 154.868L447.353 155.571Z" fill="#0C9C91"/>
<path d="M448.335 157.492L448.005 156.857L449.351 156.163L449.681 156.807L448.335 157.492Z" fill="#0C9C91"/>
<path d="M449.317 159.423L448.995 158.78L450.341 158.103L450.672 158.746L449.317 159.423Z" fill="#0C9C91"/>
<path d="M450.308 161.345L449.978 160.71L451.341 160.032L451.662 160.684L450.308 161.345Z" fill="#0C9C91"/>
<path d="M451.256 163.283L450.96 162.631L452.323 161.979L452.619 162.64L451.256 163.283Z" fill="#0C9C91"/>
<path d="M452.89 166.899L452.737 166.569L454.117 165.942L454.261 166.273L452.89 166.899Z" fill="#0C9C91"/>
<path d="M454.144 169.676L453.991 169.346L455.38 168.736L455.524 169.067L454.144 169.676Z" fill="#0C9C91"/>
<path d="M455.371 172.453L455.244 172.114L456.633 171.53L456.768 171.86L455.371 172.453Z" fill="#0C9C91"/>
<path d="M456.488 175.281L456.361 174.951L457.758 174.375L457.894 174.714L456.488 175.281Z" fill="#0C9C91"/>
<path d="M457.606 178.109L457.471 177.779L458.885 177.229L459.012 177.567L457.606 178.109Z" fill="#0C9C91"/>
<path d="M459.986 184.518C459.605 183.442 459.283 182.35 458.86 181.292L457.606 178.117L459.02 177.566L460.282 180.767C460.705 181.834 461.036 182.934 461.408 184.018L459.986 184.518Z" fill="#0C9C91"/>
<path d="M461.391 188.684L460.299 185.45L461.73 184.95L462.83 188.21L461.391 188.684Z" fill="#0C9C91"/>
<path d="M462.145 190.91L461.781 189.818L463.221 189.353L463.593 190.453L462.145 190.91Z" fill="#0C9C91"/>
<path d="M462.788 192.985L462.636 192.435L464.084 191.986L464.236 192.545L462.788 192.985Z" fill="#0C9C91"/>
<path d="M463.203 194.442L463.051 193.891L464.499 193.451L464.651 194.01L463.203 194.442Z" fill="#0C9C91"/>
<path d="M463.618 195.898L463.457 195.348L464.913 194.916L465.066 195.475L463.618 195.898Z" fill="#0C9C91"/>
<path d="M464.033 197.355L463.872 196.796L465.328 196.381L465.489 196.94L464.033 197.355Z" fill="#0C9C91"/>
<path d="M465.007 200.8L464.854 200.25L466.311 199.86L466.472 200.411L465.007 200.8Z" fill="#0C9C91"/>
<path d="M466.073 205.109L465.946 204.551L467.42 204.187L467.547 204.754L466.073 205.109Z" fill="#0C9C91"/>
<path d="M467.622 211.799L466.598 207.371L468.071 207.032L469.104 211.486L467.622 211.799Z" fill="#0C9C91"/>
<path d="M468.706 217.615L468.097 214.237L469.587 213.94L470.188 217.344L468.706 217.615Z" fill="#0C9C91"/>
<path d="M469.393 221.467L469.012 219.325L470.502 219.071L470.883 221.222L469.393 221.467Z" fill="#0C9C91"/>
<path d="M469.934 224.99L469.799 223.915L471.289 223.687L471.433 224.77L469.934 224.99Z" fill="#0C9C91"/>
<path d="M470.256 227.538L470.12 226.463L471.619 226.26L471.754 227.344L470.256 227.538Z" fill="#0C9C91"/>
<path d="M471.827 226.158L470.326 226.355L470.42 227.068L471.92 226.871L471.827 226.158Z" fill="#0C9C91"/>
<path d="M470.755 231.484L470.662 230.764L472.169 230.595L472.262 231.306L470.755 231.484Z" fill="#0C9C91"/>
<path d="M471.026 233.626L470.941 232.915L472.44 232.754L472.533 233.465L471.026 233.626Z" fill="#0C9C91"/>
<path d="M471.221 235.777L471.162 235.065L472.669 234.913L472.729 235.641L471.221 235.777Z" fill="#0C9C91"/>
<path d="M471.382 237.936L471.322 237.216L472.838 237.089L472.889 237.809L471.382 237.936Z" fill="#0C9C91"/>
<path d="M471.543 240.095L471.492 239.375L472.999 239.257L473.059 239.977L471.543 240.095Z" fill="#0C9C91"/>
<path d="M471.848 244.04L471.822 243.684L473.329 243.6L473.355 243.964L471.848 244.04Z" fill="#0C9C91"/>
<path d="M471.974 247.08L471.966 246.724L473.481 246.656L473.49 247.02L471.974 247.08Z" fill="#0C9C91"/>
<path d="M472.05 250.12L472.042 249.764L473.558 249.722L473.566 250.077L472.05 250.12Z" fill="#0C9C91"/>
<path d="M472.128 253.167L472.119 252.803L473.635 252.777L473.643 253.141L472.128 253.167Z" fill="#0C9C91"/>
<path d="M472.204 256.207L472.195 255.843H473.711L473.719 256.207H472.204Z" fill="#0C9C91"/>
<defs>
<linearGradient id="paint0_linear_3908_1430" x1="129.982" y1="131.11" x2="380.117" y2="381.237" gradientUnits="userSpaceOnUse">
<stop stop-color="#57BBF9" stop-opacity="0.8"/>
<stop offset="0.01" stop-color="#57BBF9" stop-opacity="0.72"/>
<stop offset="0.02" stop-color="#57BBF9" stop-opacity="0.51"/>
<stop offset="0.03" stop-color="#57BBF9" stop-opacity="0.3"/>
<stop offset="0.1" stop-color="#57BBF9" stop-opacity="0.39"/>
<stop offset="0.26" stop-color="#57BBF9" stop-opacity="0.63"/>
<stop offset="0.49" stop-color="#57BBF9"/>
<stop offset="0.76" stop-color="#57BBF9"/>
<stop offset="0.79" stop-color="#57BBF9" stop-opacity="0.89"/>
<stop offset="0.84" stop-color="#57BBF9" stop-opacity="0.71"/>
<stop offset="0.88" stop-color="#57BBF9" stop-opacity="0.58"/>
<stop offset="0.93" stop-color="#57BBF9" stop-opacity="0.48"/>
<stop offset="0.97" stop-color="#57BBF9" stop-opacity="0.42"/>
<stop offset="1" stop-color="#57BBF9" stop-opacity="0.4"/>
</linearGradient>
</defs>
</svg>
