<svg width="542" height="559" viewBox="0 0 542 559" fill="none" xmlns="http://www.w3.org/2000/svg">
<circle cx="277" cy="281" r="250.5" stroke="#0C9C91" stroke-width="3"/>
<path fill-rule="evenodd" clip-rule="evenodd" d="M418.483 37.3697C361.681 4.58023 295.143 -7.14986 230.552 4.23919L239.923 57.3819C252.614 55.1594 265.672 54.0006 279 54.0006C376.216 54.0006 459.031 115.655 490.478 201.996L541.161 183.54C518.72 121.912 475.285 70.1593 418.483 37.3697Z" fill="#0C9C91"/>
<path fill-rule="evenodd" clip-rule="evenodd" d="M106.616 134.394L65.2486 99.6924C23.0971 149.941 -0.00457391 213.433 6.79264e-07 279.02C0.00457799 344.607 23.1151 408.096 65.2736 458.338L106.636 423.631C73.7855 384.522 54 334.072 54 279C54 223.94 73.7774 173.499 106.616 134.394Z" fill="#0C9C91"/>
<path fill-rule="evenodd" clip-rule="evenodd" d="M490.488 355.977C459.05 442.333 376.226 504.001 279 504.001C265.682 504.001 252.635 502.844 239.953 500.625L230.59 553.769C295.182 565.149 361.719 553.41 418.517 520.612C475.314 487.815 518.742 436.056 541.174 374.425L490.488 355.977Z" fill="#0C9C91"/>
<path d="M23.0325 325.508L22.2154 321.347L41.1782 317.623L43.8467 320.68L45.6736 329.983L44.3592 333.822L25.3964 337.545L24.5793 333.384L41.6696 330.028L40.1229 322.152L23.0325 325.508Z" fill="#FCFBFC"/>
<path d="M38.6046 296.54L40.989 299.823L42.3428 312.747L21.2552 314.956L19.9014 302.032L21.5537 298.326L38.6046 296.54ZM24.4284 310.36L38.286 308.908L37.4497 300.925L23.5922 302.377L24.4284 310.36Z" fill="#FCFBFC"/>
<path d="M40.2978 287.073L31.243 287.262L19.2421 294.33L19.1457 289.727L26.9899 285.261L26.9886 285.2L18.9637 281.036L18.8672 276.433L31.1845 283.022L40.209 282.833L40.2978 287.073Z" fill="#FCFBFC"/>
<path d="M19.3765 264.39L40.9581 257.878L40.7491 262.058L36.0951 263.435L35.6983 271.371L40.1918 273.205L39.9828 277.385L19.1584 268.752L19.3765 264.39ZM24.597 266.868L32.1271 269.917L32.3951 264.556L24.6 266.808L24.597 266.868Z" fill="#FCFBFC"/>
<path d="M43.8869 237.924L30.0495 235.836L30.0405 235.896L43.1638 242.716L42.5628 246.7L27.8272 249.347L27.8182 249.407L41.8353 251.522L41.2252 255.565L20.2595 252.402L21.1 246.831L37.3201 243.887L37.3292 243.827L22.6952 236.258L23.5312 230.717L44.4969 233.881L43.8869 237.924Z" fill="#FCFBFC"/>
<path d="M364.643 36.9375L368.67 38.294L362.488 56.6467L358.502 57.4501L349.498 54.4172L346.81 51.3659L352.992 33.0132L357.02 34.3698L351.448 50.9102L359.071 53.4779L364.643 36.9375Z" fill="#FCFBFC"/>
<path d="M381.895 65.1212L377.86 65.5417L365.999 60.2457L374.64 40.8912L386.502 46.1872L388.882 49.4717L381.895 65.1212ZM377.03 45.9374L371.351 58.6561L378.678 61.9275L384.357 49.2088L377.03 45.9374Z" fill="#FCFBFC"/>
<path d="M395.325 66.2078L397.086 63.0294L403.84 66.7717L399.393 74.7969L395.337 74.8692L387.842 70.716L385.753 67.2391L394.206 51.9831L398.261 51.9109L405.757 56.0641L407.846 59.541L405.747 63.3285L402.039 61.2739L403.36 58.8902L397.136 55.4415L390.238 67.8899L396.463 71.3386L398.37 67.8954L395.325 66.2078Z" fill="#FCFBFC"/>
<path d="M422.071 66.4999L416.581 88.3275L413.108 86.0048L414.315 81.3119L407.72 76.902L403.845 79.8108L400.371 77.4881L418.446 64.0762L422.071 66.4999ZM417.271 69.7013L410.797 74.5884L415.253 77.5676L417.321 69.735L417.271 69.7013Z" fill="#FCFBFC"/>
<path d="M432.158 101.055L440.971 90.283L440.924 90.2448L428.427 98.0026L425.326 95.4654L430.547 81.5206L430.5 81.4824L421.572 92.3941L418.425 89.8188L431.778 73.4979L436.115 77.0461L430.394 92.4111L430.441 92.4492L444.345 83.7801L448.659 87.3092L435.305 103.63L432.158 101.055Z" fill="#FCFBFC"/>
<path d="M436.072 455.448L445.773 465.533L445.817 465.491L439.564 452.088L442.467 449.295L455.766 456.172L455.81 456.13L445.982 445.914L448.929 443.079L463.628 458.359L459.568 462.265L444.912 454.719L444.868 454.761L451.863 469.678L447.824 473.563L433.125 458.282L436.072 455.448Z" fill="#FCFBFC"/>
<path d="M435.043 483.844L415.968 471.884L419.25 469.296L423.342 471.893L429.574 466.979L428.002 462.393L431.284 459.805L438.468 481.143L435.043 483.844ZM433.478 478.289L430.826 470.621L426.616 473.941L433.431 478.326L433.478 478.289Z" fill="#FCFBFC"/>
<path d="M419.854 482.207L424.585 489.355L422.775 492.987L416.385 497.217L412.335 497.464L410.111 494.104L413.648 491.764L414.985 493.785L420.163 490.357L417.371 486.139L411.587 489.968L407.537 490.215L402.705 482.915L404.515 479.283L411.158 474.886L415.208 474.639L417.432 477.999L413.896 480.339L412.558 478.319L407.128 481.913L410.02 486.283L415.804 482.454L419.854 482.207Z" fill="#FCFBFC"/>
<path d="M398.426 493.745L394.078 485.766L397.801 483.736L407.948 502.354L404.224 504.383L400.165 496.936L392.851 500.922L396.91 508.37L393.186 510.399L383.04 491.781L386.763 489.752L391.112 497.731L398.426 493.745Z" fill="#FCFBFC"/>
<path d="M378.381 517.289L362.933 500.811L366.778 499.139L370.085 502.705L377.386 499.53L377.033 494.68L380.879 493.008L382.393 515.544L378.381 517.289ZM378.282 511.5L377.669 503.383L372.737 505.528L378.227 511.524L378.282 511.5Z" fill="#FCFBFC"/>
<path d="M360.543 501.492L367.613 521.481L363.615 522.896L357.757 506.333L350.932 508.747L349.72 505.32L360.543 501.492Z" fill="#FCFBFC"/>
</svg>
