<svg width="600" height="600" viewBox="0 0 600 600" fill="none" xmlns="http://www.w3.org/2000/svg">
<circle cx="300" cy="300" r="300" fill="#020231"/>
<circle cx="300" cy="300" r="250.5" stroke="#0C9C91" stroke-width="3"/>
<path fill-rule="evenodd" clip-rule="evenodd" d="M441.483 56.3697C384.681 23.5802 318.143 11.8501 253.552 23.2392L262.923 76.3819C275.614 74.1594 288.672 73.0006 302 73.0006C399.216 73.0006 482.031 134.655 513.478 220.996L564.161 202.54C541.72 140.912 498.285 89.1593 441.483 56.3697Z" fill="#0C9C91"/>
<path fill-rule="evenodd" clip-rule="evenodd" d="M129.616 153.394L88.2486 118.692C46.0971 168.941 22.9954 232.433 23 298.02C23.0046 363.607 46.1151 427.096 88.2736 477.338L129.636 442.631C96.7855 403.522 77 353.072 77 298C77 242.94 96.7774 192.499 129.616 153.394Z" fill="#0C9C91"/>
<path fill-rule="evenodd" clip-rule="evenodd" d="M513.488 374.977C482.05 461.333 399.226 523.001 302 523.001C288.682 523.001 275.635 521.844 262.953 519.625L253.59 572.769C318.182 584.149 384.719 572.41 441.517 539.612C498.314 506.815 541.742 455.056 564.174 393.425L513.488 374.977Z" fill="#0C9C91"/>
<path d="M46.0325 344.508L45.2154 340.347L64.1782 336.623L66.8467 339.68L68.6736 348.983L67.3592 352.822L48.3964 356.545L47.5793 352.384L64.6696 349.028L63.1229 341.152L46.0325 344.508Z" fill="#FCFBFC"/>
<path d="M61.6041 315.54L63.9885 318.823L65.3423 331.747L44.2547 333.956L42.9009 321.032L44.5532 317.326L61.6041 315.54ZM47.4279 329.36L61.2855 327.908L60.4492 319.925L46.5917 321.377L47.4279 329.36Z" fill="#FCFBFC"/>
<path d="M63.2973 306.073L54.2426 306.262L42.2417 313.33L42.1452 308.727L49.9894 304.261L49.9881 304.2L41.9632 300.036L41.8668 295.433L54.184 302.022L63.2085 301.833L63.2973 306.073Z" fill="#FCFBFC"/>
<path d="M42.3765 283.39L63.9581 276.878L63.7491 281.058L59.0951 282.435L58.6983 290.371L63.1918 292.205L62.9828 296.385L42.1584 287.752L42.3765 283.39ZM47.597 285.868L55.1271 288.917L55.3951 283.556L47.6 285.808L47.597 285.868Z" fill="#FCFBFC"/>
<path d="M66.8869 256.924L53.0495 254.836L53.0405 254.896L66.1638 261.716L65.5628 265.7L50.8272 268.347L50.8182 268.407L64.8353 270.522L64.2252 274.565L43.2595 271.402L44.1 265.831L60.3201 262.887L60.3292 262.827L45.6952 255.258L46.5312 249.717L67.4969 252.881L66.8869 256.924Z" fill="#FCFBFC"/>
<path d="M387.643 55.9375L391.67 57.294L385.488 75.6467L381.502 76.4501L372.498 73.4172L369.81 70.3659L375.992 52.0132L380.02 53.3698L374.448 69.9102L382.071 72.4779L387.643 55.9375Z" fill="#FCFBFC"/>
<path d="M404.895 84.1212L400.86 84.5417L388.999 79.2457L397.64 59.8912L409.502 65.1872L411.882 68.4717L404.895 84.1212ZM400.03 64.9374L394.351 77.6561L401.678 80.9275L407.357 68.2088L400.03 64.9374Z" fill="#FCFBFC"/>
<path d="M418.325 85.2078L420.086 82.0294L426.84 85.7717L422.393 93.7969L418.337 93.8692L410.842 89.716L408.753 86.2391L417.206 70.9831L421.261 70.9109L428.757 75.0641L430.846 78.541L428.747 82.3285L425.039 80.2739L426.36 77.8902L420.136 74.4415L413.238 86.8899L419.463 90.3386L421.37 86.8954L418.325 85.2078Z" fill="#FCFBFC"/>
<path d="M445.071 85.4999L439.581 107.328L436.108 105.005L437.315 100.312L430.72 95.902L426.845 98.8108L423.371 96.4881L441.446 83.0762L445.071 85.4999ZM440.271 88.7013L433.797 93.5884L438.253 96.5676L440.321 88.735L440.271 88.7013Z" fill="#FCFBFC"/>
<path d="M455.158 120.055L463.971 109.283L463.924 109.245L451.427 117.003L448.326 114.465L453.547 100.521L453.5 100.482L444.572 111.394L441.425 108.819L454.778 92.4979L459.115 96.0461L453.394 111.411L453.441 111.449L467.345 102.78L471.659 106.309L458.305 122.63L455.158 120.055Z" fill="#FCFBFC"/>
<path d="M459.072 474.448L468.773 484.533L468.817 484.491L462.564 471.088L465.467 468.295L478.766 475.172L478.81 475.13L468.982 464.914L471.929 462.079L486.628 477.359L482.568 481.265L467.912 473.719L467.868 473.761L474.863 488.678L470.824 492.563L456.125 477.282L459.072 474.448Z" fill="#FCFBFC"/>
<path d="M458.043 502.844L438.968 490.884L442.25 488.296L446.342 490.893L452.574 485.979L451.002 481.393L454.284 478.805L461.468 500.143L458.043 502.844ZM456.478 497.289L453.826 489.621L449.616 492.941L456.431 497.326L456.478 497.289Z" fill="#FCFBFC"/>
<path d="M442.854 501.207L447.585 508.355L445.775 511.987L439.385 516.217L435.335 516.464L433.111 513.104L436.648 510.764L437.985 512.785L443.163 509.357L440.371 505.139L434.587 508.968L430.537 509.215L425.705 501.915L427.515 498.283L434.158 493.886L438.208 493.639L440.432 496.999L436.896 499.339L435.558 497.319L430.128 500.913L433.02 505.283L438.804 501.454L442.854 501.207Z" fill="#FCFBFC"/>
<path d="M421.426 512.745L417.078 504.766L420.801 502.736L430.948 521.354L427.224 523.383L423.165 515.936L415.851 519.922L419.91 527.37L416.186 529.399L406.04 510.781L409.763 508.752L414.112 516.731L421.426 512.745Z" fill="#FCFBFC"/>
<path d="M401.381 536.289L385.933 519.811L389.778 518.139L393.085 521.705L400.386 518.53L400.033 513.68L403.879 512.008L405.393 534.544L401.381 536.289ZM401.282 530.5L400.669 522.383L395.737 524.528L401.227 530.524L401.282 530.5Z" fill="#FCFBFC"/>
<path d="M383.543 520.492L390.613 540.481L386.615 541.896L380.757 525.333L373.932 527.747L372.72 524.32L383.543 520.492Z" fill="#FCFBFC"/>
</svg>
