<?xml version="1.0" encoding="UTF-8" standalone="no" ?>
<!DOCTYPE svg PUBLIC "-//W3C//DTD SVG 1.1//EN" "http://www.w3.org/Graphics/SVG/1.1/DTD/svg11.dtd">
<svg xmlns="http://www.w3.org/2000/svg" xmlns:xlink="http://www.w3.org/1999/xlink" version="1.1" width="1080" height="1080" viewBox="216 216 649 649" xml:space="preserve">
<desc>Created with Fabric.js 5.2.4</desc>
<defs>
</defs>
<g transform="matrix(1 0 0 1 540 540)" id="b292a31d-2773-47bb-b682-483b098dbdf5"  >
<rect style="stroke: none; stroke-width: 1; stroke-dasharray: none; stroke-linecap: butt; stroke-dashoffset: 0; stroke-linejoin: miter; stroke-miterlimit: 4; fill: rgb(255,255,255); fill-rule: nonzero; opacity: 1; visibility: hidden;" vector-effect="non-scaling-stroke"  x="-540" y="-540" rx="0" ry="0" width="1080" height="1080" />
</g>
<g transform="matrix(1 0 0 1 540 540)" id="e82b5c31-c55b-4b35-bfd2-847ef6c60b2e"  >
</g>
<g transform="matrix(1 0 0 1 540 540)"  >
<circle style="stroke: none; stroke-width: 1; stroke-dasharray: none; stroke-linecap: butt; stroke-dashoffset: 0; stroke-linejoin: miter; stroke-miterlimit: 4; fill: rgb(2,2,49); fill-rule: nonzero; opacity: 1;" vector-effect="non-scaling-stroke"  cx="0" cy="0" r="300" />
</g>
<g transform="matrix(1 0 0 1 540 540)"  >
<circle style="stroke: rgb(12,156,145); stroke-width: 3; stroke-dasharray: none; stroke-linecap: butt; stroke-dashoffset: 0; stroke-linejoin: miter; stroke-miterlimit: 4; fill: none; fill-rule: nonzero; opacity: 1;" vector-effect="non-scaling-stroke"  cx="0" cy="0" r="250.5" />
</g>
<g transform="matrix(1 0 0 1 648.85 360)"  >
<path style="stroke: none; stroke-width: 1; stroke-dasharray: none; stroke-linecap: butt; stroke-dashoffset: 0; stroke-linejoin: miter; stroke-miterlimit: 4; fill: rgb(25,12,156); fill-rule: evenodd; opacity: 1;" vector-effect="non-scaling-stroke"  transform=" translate(-408.86, -120)" d="M 441.483 56.3697 C 384.681 23.5802 318.143 11.8501 253.552 23.2392 L 262.923 76.3819 C 275.614 74.1594 288.672 73.0006 302 73.0006 C 399.216 73.0006 482.031 134.655 513.478 220.996 L 564.161 202.54 C 541.72 140.912 498.285 89.1593 441.483 56.3697 Z" stroke-linecap="round" />
</g>
<g transform="matrix(1 0 0 1 316.32 538.01)"  >
<path style="stroke: none; stroke-width: 1; stroke-dasharray: none; stroke-linecap: butt; stroke-dashoffset: 0; stroke-linejoin: miter; stroke-miterlimit: 4; fill: rgb(25,12,156); fill-rule: evenodd; opacity: 1;" vector-effect="non-scaling-stroke"  transform=" translate(-76.32, -298.01)" d="M 129.616 153.394 L 88.2486 118.692 C 46.0971 168.941 22.9954 232.433 23 298.02 C 23.0046 363.607 46.1151 427.096 88.2736 477.338 L 129.636 442.631 C 96.7855 403.522 77 353.072 77 298 C 77 242.94 96.7774 192.499 129.616 153.394 Z" stroke-linecap="round" />
</g>
<g transform="matrix(1 0 0 1 648.88 715.99)"  >
<path style="stroke: none; stroke-width: 1; stroke-dasharray: none; stroke-linecap: butt; stroke-dashoffset: 0; stroke-linejoin: miter; stroke-miterlimit: 4; fill: rgb(25,12,156); fill-rule: evenodd; opacity: 1;" vector-effect="non-scaling-stroke"  transform=" translate(-408.88, -475.99)" d="M 513.488 374.977 C 482.05 461.333 399.226 523.001 302 523.001 C 288.682 523.001 275.635 521.844 262.953 519.625 L 253.59 572.769 C 318.182 584.149 384.719 572.41 441.517 539.612 C 498.314 506.815 541.742 455.056 564.174 393.425 L 513.488 374.977 Z" stroke-linecap="round" />
</g>
<g transform="matrix(1 0 0 1 296.95 586.58)"  >
<path style="stroke: none; stroke-width: 1; stroke-dasharray: none; stroke-linecap: butt; stroke-dashoffset: 0; stroke-linejoin: miter; stroke-miterlimit: 4; fill: rgb(252,251,252); fill-rule: nonzero; opacity: 1;" vector-effect="non-scaling-stroke"  transform=" translate(-56.94, -346.58)" d="M 46.0325 344.508 L 45.2154 340.347 L 64.1782 336.623 L 66.8467 339.68 L 68.6736 348.983 L 67.3592 352.822 L 48.3964 356.545 L 47.5793 352.384 L 64.6696 349.028 L 63.1229 341.152 L 46.0325 344.508 Z" stroke-linecap="round" />
</g>
<g transform="matrix(1 0 0 1 294.12 564.75)"  >
<path style="stroke: none; stroke-width: 1; stroke-dasharray: none; stroke-linecap: butt; stroke-dashoffset: 0; stroke-linejoin: miter; stroke-miterlimit: 4; fill: rgb(252,251,252); fill-rule: nonzero; opacity: 1;" vector-effect="non-scaling-stroke"  transform=" translate(-54.12, -324.75)" d="M 61.6041 315.54 L 63.9885 318.823 L 65.3423 331.747 L 44.2547 333.956 L 42.9009 321.032 L 44.5532 317.326 L 61.6041 315.54 Z M 47.4279 329.36 L 61.2855 327.908 L 60.4492 319.925 L 46.5917 321.377 L 47.4279 329.36 Z" stroke-linecap="round" />
</g>
<g transform="matrix(1 0 0 1 292.59 544.38)"  >
<path style="stroke: none; stroke-width: 1; stroke-dasharray: none; stroke-linecap: butt; stroke-dashoffset: 0; stroke-linejoin: miter; stroke-miterlimit: 4; fill: rgb(252,251,252); fill-rule: nonzero; opacity: 1;" vector-effect="non-scaling-stroke"  transform=" translate(-52.58, -304.38)" d="M 63.2973 306.073 L 54.2426 306.262 L 42.2417 313.33 L 42.1452 308.727 L 49.9894 304.261 L 49.9881 304.2 L 41.9632 300.036 L 41.8668 295.433 L 54.184 302.022 L 63.2085 301.833 L 63.2973 306.073 Z" stroke-linecap="round" />
</g>
<g transform="matrix(1 0 0 1 293.06 526.63)"  >
<path style="stroke: none; stroke-width: 1; stroke-dasharray: none; stroke-linecap: butt; stroke-dashoffset: 0; stroke-linejoin: miter; stroke-miterlimit: 4; fill: rgb(252,251,252); fill-rule: nonzero; opacity: 1;" vector-effect="non-scaling-stroke"  transform=" translate(-53.06, -286.63)" d="M 42.3765 283.39 L 63.9581 276.878 L 63.7491 281.058 L 59.0951 282.435 L 58.6983 290.371 L 63.1918 292.205 L 62.9828 296.385 L 42.1584 287.752 L 42.3765 283.39 Z M 47.597 285.868 L 55.1271 288.917 L 55.3951 283.556 L 47.6 285.808 L 47.597 285.868 Z" stroke-linecap="round" />
</g>
<g transform="matrix(1 0 0 1 295.38 502.14)"  >
<path style="stroke: none; stroke-width: 1; stroke-dasharray: none; stroke-linecap: butt; stroke-dashoffset: 0; stroke-linejoin: miter; stroke-miterlimit: 4; fill: rgb(252,251,252); fill-rule: nonzero; opacity: 1;" vector-effect="non-scaling-stroke"  transform=" translate(-55.38, -262.14)" d="M 66.8869 256.924 L 53.0495 254.836 L 53.0405 254.896 L 66.1638 261.716 L 65.5628 265.7 L 50.8272 268.347 L 50.8182 268.407 L 64.8353 270.522 L 64.2252 274.565 L 43.2595 271.402 L 44.1 265.831 L 60.3201 262.887 L 60.3292 262.827 L 45.6952 255.258 L 46.5312 249.717 L 67.4969 252.881 L 66.8869 256.924 Z" stroke-linecap="round" />
</g>
<g transform="matrix(1 0 0 1 620.74 304.23)"  >
<path style="stroke: none; stroke-width: 1; stroke-dasharray: none; stroke-linecap: butt; stroke-dashoffset: 0; stroke-linejoin: miter; stroke-miterlimit: 4; fill: rgb(252,251,252); fill-rule: nonzero; opacity: 1;" vector-effect="non-scaling-stroke"  transform=" translate(-380.74, -64.23)" d="M 387.643 55.9375 L 391.67 57.294 L 385.488 75.6467 L 381.502 76.4501 L 372.498 73.4172 L 369.81 70.3659 L 375.992 52.0132 L 380.02 53.3698 L 374.448 69.9102 L 382.071 72.4779 L 387.643 55.9375 Z" stroke-linecap="round" />
</g>
<g transform="matrix(1 0 0 1 640.44 312.22)"  >
<path style="stroke: none; stroke-width: 1; stroke-dasharray: none; stroke-linecap: butt; stroke-dashoffset: 0; stroke-linejoin: miter; stroke-miterlimit: 4; fill: rgb(252,251,252); fill-rule: nonzero; opacity: 1;" vector-effect="non-scaling-stroke"  transform=" translate(-400.44, -72.22)" d="M 404.895 84.1212 L 400.86 84.5417 L 388.999 79.2457 L 397.64 59.8912 L 409.502 65.1872 L 411.882 68.4717 L 404.895 84.1212 Z M 400.03 64.9374 L 394.351 77.6561 L 401.678 80.9275 L 407.357 68.2088 L 400.03 64.9374 Z" stroke-linecap="round" />
</g>
<g transform="matrix(1 0 0 1 659.8 322.39)"  >
<path style="stroke: none; stroke-width: 1; stroke-dasharray: none; stroke-linecap: butt; stroke-dashoffset: 0; stroke-linejoin: miter; stroke-miterlimit: 4; fill: rgb(252,251,252); fill-rule: nonzero; opacity: 1;" vector-effect="non-scaling-stroke"  transform=" translate(-419.8, -82.39)" d="M 418.325 85.2078 L 420.086 82.0294 L 426.84 85.7717 L 422.393 93.7969 L 418.337 93.8692 L 410.842 89.716 L 408.753 86.2391 L 417.206 70.9831 L 421.261 70.9109 L 428.757 75.0641 L 430.846 78.541 L 428.747 82.3285 L 425.039 80.2739 L 426.36 77.8902 L 420.136 74.4415 L 413.238 86.8899 L 419.463 90.3386 L 421.37 86.8954 L 418.325 85.2078 Z" stroke-linecap="round" />
</g>
<g transform="matrix(1 0 0 1 674.22 335.21)"  >
<path style="stroke: none; stroke-width: 1; stroke-dasharray: none; stroke-linecap: butt; stroke-dashoffset: 0; stroke-linejoin: miter; stroke-miterlimit: 4; fill: rgb(252,251,252); fill-rule: nonzero; opacity: 1;" vector-effect="non-scaling-stroke"  transform=" translate(-434.22, -95.2)" d="M 445.071 85.4999 L 439.581 107.328 L 436.108 105.005 L 437.315 100.312 L 430.72 95.902 L 426.845 98.8108 L 423.371 96.4881 L 441.446 83.0762 L 445.071 85.4999 Z M 440.271 88.7013 L 433.797 93.5884 L 438.253 96.5676 L 440.321 88.735 L 440.271 88.7013 Z" stroke-linecap="round" />
</g>
<g transform="matrix(1 0 0 1 696.55 347.57)"  >
<path style="stroke: none; stroke-width: 1; stroke-dasharray: none; stroke-linecap: butt; stroke-dashoffset: 0; stroke-linejoin: miter; stroke-miterlimit: 4; fill: rgb(252,251,252); fill-rule: nonzero; opacity: 1;" vector-effect="non-scaling-stroke"  transform=" translate(-456.54, -107.56)" d="M 455.158 120.055 L 463.971 109.283 L 463.924 109.245 L 451.427 117.003 L 448.326 114.465 L 453.547 100.521 L 453.5 100.482 L 444.572 111.394 L 441.425 108.819 L 454.778 92.4979 L 459.115 96.0461 L 453.394 111.411 L 453.441 111.449 L 467.345 102.78 L 471.659 106.309 L 458.305 122.63 L 455.158 120.055 Z" stroke-linecap="round" />
</g>
<g transform="matrix(1 0 0 1 711.38 717.32)"  >
<path style="stroke: none; stroke-width: 1; stroke-dasharray: none; stroke-linecap: butt; stroke-dashoffset: 0; stroke-linejoin: miter; stroke-miterlimit: 4; fill: rgb(252,251,252); fill-rule: nonzero; opacity: 1;" vector-effect="non-scaling-stroke"  transform=" translate(-471.38, -477.32)" d="M 459.072 474.448 L 468.773 484.533 L 468.817 484.491 L 462.564 471.088 L 465.467 468.295 L 478.766 475.172 L 478.81 475.13 L 468.982 464.914 L 471.929 462.079 L 486.628 477.359 L 482.568 481.265 L 467.912 473.719 L 467.868 473.761 L 474.863 488.678 L 470.824 492.563 L 456.125 477.282 L 459.072 474.448 Z" stroke-linecap="round" />
</g>
<g transform="matrix(1 0 0 1 690.22 730.83)"  >
<path style="stroke: none; stroke-width: 1; stroke-dasharray: none; stroke-linecap: butt; stroke-dashoffset: 0; stroke-linejoin: miter; stroke-miterlimit: 4; fill: rgb(252,251,252); fill-rule: nonzero; opacity: 1;" vector-effect="non-scaling-stroke"  transform=" translate(-450.22, -490.82)" d="M 458.043 502.844 L 438.968 490.884 L 442.25 488.296 L 446.342 490.893 L 452.574 485.979 L 451.002 481.393 L 454.284 478.805 L 461.468 500.143 L 458.043 502.844 Z M 456.478 497.289 L 453.826 489.621 L 449.616 492.941 L 456.431 497.326 L 456.478 497.289 Z" stroke-linecap="round" />
</g>
<g transform="matrix(1 0 0 1 676.64 745.05)"  >
<path style="stroke: none; stroke-width: 1; stroke-dasharray: none; stroke-linecap: butt; stroke-dashoffset: 0; stroke-linejoin: miter; stroke-miterlimit: 4; fill: rgb(252,251,252); fill-rule: nonzero; opacity: 1;" vector-effect="non-scaling-stroke"  transform=" translate(-436.64, -505.05)" d="M 442.854 501.207 L 447.585 508.355 L 445.775 511.987 L 439.385 516.217 L 435.335 516.464 L 433.111 513.104 L 436.648 510.764 L 437.985 512.785 L 443.163 509.357 L 440.371 505.139 L 434.587 508.968 L 430.537 509.215 L 425.705 501.915 L 427.515 498.283 L 434.158 493.886 L 438.208 493.639 L 440.432 496.999 L 436.896 499.339 L 435.558 497.319 L 430.128 500.913 L 433.02 505.283 L 438.804 501.454 L 442.854 501.207 Z" stroke-linecap="round" />
</g>
<g transform="matrix(1 0 0 1 658.49 756.07)"  >
<path style="stroke: none; stroke-width: 1; stroke-dasharray: none; stroke-linecap: butt; stroke-dashoffset: 0; stroke-linejoin: miter; stroke-miterlimit: 4; fill: rgb(252,251,252); fill-rule: nonzero; opacity: 1;" vector-effect="non-scaling-stroke"  transform=" translate(-418.49, -516.07)" d="M 421.426 512.745 L 417.078 504.766 L 420.801 502.736 L 430.948 521.354 L 427.224 523.383 L 423.165 515.936 L 415.851 519.922 L 419.91 527.37 L 416.186 529.399 L 406.04 510.781 L 409.763 508.752 L 414.112 516.731 L 421.426 512.745 Z" stroke-linecap="round" />
</g>
<g transform="matrix(1 0 0 1 635.66 764.15)"  >
<path style="stroke: none; stroke-width: 1; stroke-dasharray: none; stroke-linecap: butt; stroke-dashoffset: 0; stroke-linejoin: miter; stroke-miterlimit: 4; fill: rgb(252,251,252); fill-rule: nonzero; opacity: 1;" vector-effect="non-scaling-stroke"  transform=" translate(-395.66, -524.15)" d="M 401.381 536.289 L 385.933 519.811 L 389.778 518.139 L 393.085 521.705 L 400.386 518.53 L 400.033 513.68 L 403.879 512.008 L 405.393 534.544 L 401.381 536.289 Z M 401.282 530.5 L 400.669 522.383 L 395.737 524.528 L 401.227 530.524 L 401.282 530.5 Z" stroke-linecap="round" />
</g>
<g transform="matrix(1 0 0 1 621.67 771.19)"  >
<path style="stroke: none; stroke-width: 1; stroke-dasharray: none; stroke-linecap: butt; stroke-dashoffset: 0; stroke-linejoin: miter; stroke-miterlimit: 4; fill: rgb(252,251,252); fill-rule: nonzero; opacity: 1;" vector-effect="non-scaling-stroke"  transform=" translate(-381.67, -531.19)" d="M 383.543 520.492 L 390.613 540.481 L 386.615 541.896 L 380.757 525.333 L 373.932 527.747 L 372.72 524.32 L 383.543 520.492 Z" stroke-linecap="round" />
</g>
<g transform="matrix(NaN NaN NaN NaN 0 0)"  >
<g style=""   >
</g>
</g>
</svg>