<svg width="542" height="558" viewBox="0 0 542 558" fill="none" xmlns="http://www.w3.org/2000/svg">
<path opacity="0.5" fill-rule="evenodd" clip-rule="evenodd" d="M72.8927 92.3257C-7.58634 181.357 -23.9952 315.756 41.2024 423.377C50.4998 438.724 61.0481 452.853 72.6385 465.71L100.146 415.482C95.3928 409.222 90.9204 402.652 86.7572 395.78C36.9056 313.49 45.994 211.957 101.933 140.262L72.8927 92.3257ZM243.378 56.2911C331.63 41.7648 423.788 80.7798 472.901 161.851C474.031 163.715 475.129 165.589 476.197 167.472L531.504 158.361C527.59 150.2 523.243 142.154 518.456 134.253C453.971 27.8087 329.303 -20.009 214.176 8.08671L243.378 56.2911ZM424.105 516.969C497.697 472.386 543.332 399.316 555.46 320.593L500.885 329.582L500.35 326.274C487.659 384.742 451.864 438.107 396.608 471.581C347.861 501.113 292.405 510.05 240.402 500.881L213.727 549.586C282.834 566.317 358.377 556.787 424.105 516.969Z" fill="url(#paint0_linear_3584_4574)"/>
<defs>
<linearGradient id="paint0_linear_3584_4574" x1="141.627" y1="50.686" x2="424.105" y2="516.969" gradientUnits="userSpaceOnUse">
<stop stop-color="#0C9C91"/>
<stop offset="1" stop-color="#11A5C6"/>
</linearGradient>
</defs>
</svg>
