<svg width="14" height="14" viewBox="0 0 14 14" fill="none" xmlns="http://www.w3.org/2000/svg">
<path d="M1.54534 7.56543H6.14076V12.1609C6.14076 12.6279 6.52497 13.0197 6.99958 13.0197C7.47419 13.0197 7.8584 12.6279 7.8584 12.1609V7.56543H12.4538C12.9209 7.56543 13.3126 7.18122 13.3126 6.70661C13.3126 6.232 12.9209 5.8478 12.4538 5.8478H7.8584V1.25237C7.8584 0.785296 7.47419 0.393555 6.99958 0.393555C6.52497 0.393555 6.14076 0.785296 6.14076 1.25237V5.8478H1.54534C1.07826 5.8478 0.686523 6.232 0.686523 6.70661C0.686523 7.18122 1.07826 7.56543 1.54534 7.56543Z" fill="white"/>
</svg>
