<svg width="14" height="13" viewBox="0 0 14 13" fill="none" xmlns="http://www.w3.org/2000/svg">
<path d="M1.16194 11.3306C0.845537 11.647 0.83047 12.212 1.16948 12.5435C1.50095 12.875 2.06596 12.8674 2.38237 12.551L6.99286 7.93301L11.6109 12.551C11.9348 12.875 12.4923 12.875 12.8238 12.5435C13.1477 12.2045 13.1552 11.6545 12.8238 11.3306L8.21328 6.71258L12.8238 2.10209C13.1552 1.77815 13.1552 1.22068 12.8238 0.889203C12.4848 0.565263 11.9348 0.55773 11.6109 0.88167L6.99286 5.49969L2.38237 0.88167C2.06596 0.565263 1.49342 0.550196 1.16948 0.889203C0.838003 1.22068 0.845537 1.78569 1.16194 2.10209L5.77997 6.71258L1.16194 11.3306Z" fill="white"/>
</svg>
